<svg width="100" height="100" viewBox="0 0 100 100" fill="none" xmlns="http://www.w3.org/2000/svg">
<path d="M99.0275 40.2075H95V40H50V60H78.2575C74.135 71.6425 63.0575 80 50 80C33.4325 80 20 66.5675 20 50C20 33.4325 33.4325 20 50 20C57.6475 20 64.605 22.885 69.9025 27.5975L84.045 13.455C75.115 5.1325 63.17 0 50 0C22.3875 0 0 22.3875 0 50C0 77.6125 22.3875 100 50 100C77.6125 100 100 77.6125 100 50C100 46.6475 99.655 43.375 99.0275 40.2075Z" fill="#FBC02D"/>
<path d="M5.76367 26.7275L22.1912 38.775C26.6362 27.77 37.4012 20 49.9987 20C57.6462 20 64.6037 22.885 69.9012 27.5975L84.0437 13.455C75.1137 5.1325 63.1687 0 49.9987 0C30.7937 0 14.1387 10.8425 5.76367 26.7275Z" fill="#E53935"/>
<path d="M50.0013 99.9998C62.9163 99.9998 74.6513 95.0573 83.5238 87.0198L68.0488 73.9248C63.0288 77.7273 56.7888 79.9998 50.0013 79.9998C36.9963 79.9998 25.9538 71.7073 21.7938 60.1348L5.48877 72.6973C13.7638 88.8898 30.5688 99.9998 50.0013 99.9998Z" fill="#4CAF50"/>
<path d="M99.027 40.2055L98.987 39.998H94.9995H49.9995V59.998H78.257C76.277 65.5905 72.6795 70.413 68.0395 73.9255C68.042 73.923 68.0445 73.923 68.047 73.9205L83.522 87.0155C82.427 88.0105 99.9995 74.998 99.9995 49.998C99.9995 46.6455 99.6545 43.373 99.027 40.2055Z" fill="#1565C0"/>
</svg>
