<svg width="100" height="63" viewBox="0 0 100 63" fill="none" xmlns="http://www.w3.org/2000/svg">
<path d="M97.3321 24.0659C81.55 7.68583 65.101 -0.445833 48.5409 0.0188456C26.6459 0.48398 10.197 15.4694 2.41704 24.2983C-0.805678 27.8993 -0.805678 34.2889 2.41704 38.0059C10.1968 46.8346 26.6459 61.8206 48.5409 62.4015H49.6526C65.8797 62.4015 81.9948 54.2698 97.3324 38.2382C98.9992 36.496 100 33.9402 100 31.1519C100 28.3636 98.9999 25.8077 97.3324 24.0655L97.3321 24.0659ZM49.9857 55.4317C37.2048 55.4317 26.7571 44.5116 26.7571 31.1523C26.7571 17.793 37.2046 6.87285 49.9857 6.87285C62.7668 6.87285 73.2143 17.793 73.2143 31.1523C73.2143 44.5116 62.7668 55.4317 49.9857 55.4317ZM49.9857 15.0047C41.4276 15.0047 34.537 22.207 34.537 31.1523C34.537 40.0976 41.4276 47.2999 49.9857 47.2999C58.5438 47.2999 65.4344 40.0976 65.4344 31.1523C65.4344 22.207 58.5438 15.0047 49.9857 15.0047V15.0047ZM49.9857 41.6076C44.5396 41.6076 39.9833 36.9612 39.9833 31.1527C39.9833 29.8748 40.9834 28.8295 42.206 28.8295C43.4286 28.8295 44.4286 29.8749 44.4286 31.1527C44.4286 34.2895 46.8737 36.9612 49.9857 36.9612C51.2083 36.9612 52.2083 38.0065 52.2083 39.2844C52.2083 40.5623 51.2082 41.6076 49.9857 41.6076Z" fill="#414040"/>
</svg>
