<svg width="100" height="87" viewBox="0 0 100 87" fill="none" xmlns="http://www.w3.org/2000/svg">
<path d="M97.3321 41.0855C81.55 24.7054 65.101 16.5737 48.5409 17.0384C26.6459 17.5035 10.197 32.4889 2.41704 41.3178C-0.805678 44.9189 -0.805678 51.3084 2.41704 55.0254C10.1968 63.8541 26.6459 78.8402 48.5409 79.421H49.6526C65.8797 79.421 81.9948 71.2894 97.3324 55.2578C98.9992 53.5155 100 50.9597 100 48.1714C100 45.3831 98.9999 42.8272 97.3324 41.0851L97.3321 41.0855ZM49.9857 72.4513C37.2048 72.4513 26.7571 61.5311 26.7571 48.1718C26.7571 34.8125 37.2046 23.8924 49.9857 23.8924C62.7668 23.8924 73.2143 34.8125 73.2143 48.1718C73.2143 61.5311 62.7668 72.4513 49.9857 72.4513ZM49.9857 32.0243C41.4276 32.0243 34.537 39.2266 34.537 48.1718C34.537 57.1171 41.4276 64.3194 49.9857 64.3194C58.5438 64.3194 65.4344 57.1171 65.4344 48.1718C65.4344 39.2266 58.5438 32.0243 49.9857 32.0243V32.0243ZM49.9857 58.6271C44.5396 58.6271 39.9833 53.9807 39.9833 48.1722C39.9833 46.8943 40.9834 45.8491 42.206 45.8491C43.4286 45.8491 44.4286 46.8944 44.4286 48.1722C44.4286 51.309 46.8737 53.9807 49.9857 53.9807C51.2083 53.9807 52.2083 55.0261 52.2083 56.3039C52.2083 57.5818 51.2082 58.6271 49.9857 58.6271Z" fill="#414040"/>
<line x1="1" y1="-1" x2="116.764" y2="-1" transform="matrix(-0.691297 0.72257 -0.691297 -0.72257 86.8379 0)" stroke="#414040" stroke-width="2" stroke-linecap="round"/>
</svg>
