<svg class="svg-icon" style="width: 1em;height: 1em;vertical-align: middle;fill: currentColor;overflow: hidden;" viewBox="0 0 1024 1024" version="1.1" xmlns="http://www.w3.org/2000/svg"><path d="M960 846.6L912.2 820c39.9-99 0-213.9-98.5-268.7-76.3-42.4-167.5-37.4-236.8 5.4l73 40.5c41.3-13.3 88.2-10.2 128.9 12.4 64.9 36.1 93 109.9 71.8 176l-42.1-23.4L831.7 892l42.7-15.1 2.7 1.5-2.7-1.5 85.6-30.3zM749.1 885c-41.1 13-87.5 9.7-127.8-12.7-64.9-36.1-93-109.9-71.8-176l42.1 23.4L568.3 590 440 635.4l47.8 26.6h0.1-0.1c0 0.1-0.1 0.2-0.1 0.3-39.7 98.9 0.2 213.6 98.6 268.2 76 42.2 166.8 37.4 236-4.9L749.1 885z" fill="#CE6043" /><path d="M405 732c0-36.3 6.6-71.7 19.2-104.6l-8.2-4.3-109.7 57.7 20.9-122.1-88.7-86.5 122.6-17.8L416 343.3l54.9 111.1 99.4 14.4C609.3 450 652.4 440 697 440c24.3 0 48.1 2.9 71 8.6V288c0-17.7-14.3-32-32-32H192c-35.3 0-64-28.7-64-64H64v545.1c0 52.4 42.5 94.9 94.9 94.9h263.6C411 800.4 405 766.7 405 732z" fill="#E6C27C" /><path d="M160 192h608c0 8.8-3.6 16.8-9.4 22.6-5.8 5.8-13.8 9.4-22.6 9.4H192c-17.7 0-32-14.3-32-32z" fill="#E6C27C" /><path d="M768 288c0 17.7-14.3 32-32 32H192c-70.6 0-128-57.4-128-128S121.4 64 192 64h544c17.7 0 32 14.3 32 32s-14.3 32-32 32H192c-35.3 0-64 28.7-64 64s28.7 64 64 64h544c17.7 0 32 14.3 32 32z" fill="#B2B2B2" /><path d="M768 192c0 8.8-3.6 16.8-9.4 22.6-5.8 5.8-13.8 9.4-22.6 9.4H192c-17.7 0-32-14.3-32-32 0-8.8 3.6-16.8 9.4-22.6 5.8-5.8 13.8-9.4 22.6-9.4h544c17.7 0 32 14.3 32 32z" fill="#B2B2B2" /></svg>