<svg width="302" height="354" viewBox="0 0 302 354" fill="none" xmlns="http://www.w3.org/2000/svg">
<path d="M15.9235 0.500749V0.500773C55.6771 0.504898 113.438 0.503234 169.088 0.50163C212.571 0.500377 254.766 0.499161 286.077 0.500773L286.081 0.500773V0.500797C290.313 0.542059 294.148 1.70709 296.937 3.58899C299.722 5.4682 301.511 8.10169 301.5 11.068C301.5 11.0686 301.5 11.0693 301.5 11.07M15.9235 0.500749L301 11.068L301.5 11.07M15.9235 0.500749L15.9186 0.500797C11.6871 0.542029 7.8522 1.70712 5.06331 3.58904C2.27808 5.4685 0.488966 8.10236 0.500051 11.0689M15.9235 0.500749L0.500051 11.0689M301.5 11.07L301.5 42.3136V42.8136H301L151 42.8136L1.00005 42.8136H0.500051L0.500051 42.3136L0.500051 11.0689M301.5 11.07L0.500051 11.0689M100.504 222.332H100.743H165.139H166.255L165.512 223.165L119.973 274.185C119.971 274.187 119.969 274.189 119.968 274.19C117.468 277.165 117.013 280.483 118.249 283.485C119.494 286.513 122.491 289.292 127.035 291.055C131.576 292.814 136.776 293.211 141.53 292.418C146.289 291.624 150.549 289.648 153.251 286.718L153.4 286.557L216.067 216.083C216.067 216.082 216.068 216.081 216.069 216.08C217.745 214.138 218.56 212.002 218.556 209.887C218.553 207.772 217.729 205.635 216.045 203.694C212.665 199.8 206.356 197.33 199.433 197.297C199.432 197.297 199.431 197.297 199.43 197.297M100.504 222.332L199.433 196.797L199.43 197.297M100.504 222.332C93.709 222.2 87.5691 219.725 84.2832 215.879C82.6302 213.943 81.8313 211.813 81.8456 209.708C81.8599 207.603 82.6874 205.477 84.3667 203.549C84.3673 203.549 84.3679 203.548 84.3685 203.547L147.192 132.908L147.281 132.808C149.992 129.962 154.191 128.048 158.865 127.281C163.594 126.506 168.758 126.913 173.262 128.672C177.767 130.433 180.731 133.2 181.954 136.209C183.168 139.194 182.701 142.49 180.203 145.442C180.202 145.444 180.201 145.445 180.2 145.446L134.924 196.465L134.185 197.297H135.298L199.43 197.297M100.504 222.332L199.43 197.297M1.00005 67.8493H0.500051V68.3493L0.500051 352.136V352.636H1.00005H301H301.5V352.136V68.3493V67.8493H301L1.00005 67.8493Z" stroke="#055087"/>
</svg>
