<svg width="302" height="452" viewBox="0 0 302 452" fill="none" xmlns="http://www.w3.org/2000/svg">
<path d="M75.3657 150.999C75.3657 192.627 109.232 226.496 150.863 226.496C192.495 226.496 226.361 192.627 226.361 150.999C226.361 109.368 192.495 75.498 150.863 75.498C109.232 75.498 75.3657 109.368 75.3657 150.999Z" stroke="#055087"/>
<path d="M48.2613 262.047L48.2678 262.052C71.7404 282.333 95.4321 317.288 113.26 352.416C122.172 369.973 129.61 387.559 134.82 403.355C140.033 419.16 143.003 433.139 143.003 443.495C143.003 447.911 146.585 451.494 151.002 451.494C155.418 451.494 158.998 447.911 158.998 443.495C158.998 433.139 161.968 419.161 167.182 403.355C172.394 387.558 179.836 369.97 188.753 352.407C206.594 317.269 230.31 282.291 253.83 261.964L253.836 261.958C284.579 234.455 301.5 195.042 301.5 151C301.5 68.0121 233.988 0.5 151 0.5C68.0121 0.5 0.5 68.0137 0.5 151C0.5 195.041 17.4211 234.457 48.2613 262.047Z" stroke="#055087"/>
<mask id="path-3-outside-1_205_1035" maskUnits="userSpaceOnUse" x="104.863" y="105" width="55" height="55" fill="black">
<rect fill="white" x="104.863" y="105" width="55" height="55"/>
<path fill-rule="evenodd" clip-rule="evenodd" d="M113.361 158.498C109.221 158.498 105.863 155.139 105.863 150.999C105.863 126.18 126.045 106 150.862 106C155.002 106 158.361 109.359 158.361 113.499C158.361 117.639 155.002 120.998 150.862 120.998C134.317 120.998 120.863 134.454 120.863 150.999C120.863 155.139 117.502 158.498 113.361 158.498"/>
</mask>
<path d="M113.361 157.498C109.773 157.498 106.863 154.587 106.863 150.999H104.863C104.863 155.692 108.669 159.498 113.361 159.498V157.498ZM106.863 150.999C106.863 126.732 126.598 107 150.862 107V105C125.493 105 104.863 125.627 104.863 150.999H106.863ZM150.862 107C154.45 107 157.361 109.911 157.361 113.499H159.361C159.361 108.806 155.554 105 150.862 105V107ZM157.361 113.499C157.361 117.087 154.45 119.998 150.862 119.998V121.998C155.554 121.998 159.361 118.191 159.361 113.499H157.361ZM150.862 119.998C133.764 119.998 119.863 133.902 119.863 150.999H121.863C121.863 135.006 134.869 121.998 150.862 121.998V119.998ZM119.863 150.999C119.863 154.587 116.95 157.498 113.361 157.498V159.498C118.053 159.498 121.863 155.692 121.863 150.999H119.863Z" fill="#055087" mask="url(#path-3-outside-1_205_1035)"/>
</svg>
