<svg width="300" height="389" viewBox="0 0 300 389" fill="none" xmlns="http://www.w3.org/2000/svg">
<rect x="0.5" y="38.9619" width="299" height="349" rx="29.5" stroke="#055087"/>
<path d="M140.736 123.7H47.3593C46.1165 123.7 45.0996 122.691 45.0996 121.44C45.0996 120.198 46.1171 119.181 47.3593 119.181H140.744C141.985 119.181 142.995 120.197 142.995 121.44C142.995 122.692 141.983 123.7 140.741 123.7H140.736Z" stroke="#055087" stroke-width="0.5"/>
<path d="M140.736 147.258H47.3593C46.1165 147.258 45.0996 146.249 45.0996 144.998C45.0996 143.757 46.1159 142.747 47.3593 142.747H140.744C141.986 142.747 142.995 143.756 142.995 144.998C142.995 146.247 141.983 147.258 140.741 147.258H140.736Z" stroke="#055087" stroke-width="0.5"/>
<path d="M252.639 170.824H47.3593C46.1176 170.824 45.0996 169.807 45.0996 168.555C45.0996 167.314 46.1159 166.305 47.3593 166.305H252.639C253.882 166.305 254.898 167.314 254.898 168.555C254.898 169.807 253.88 170.824 252.639 170.824Z" stroke="#055087" stroke-width="0.5"/>
<path d="M252.639 194.375H47.3593C46.1159 194.375 45.0996 193.365 45.0996 192.124C45.0996 190.873 46.1165 189.864 47.3593 189.864H252.639C253.882 189.864 254.898 190.873 254.898 192.124C254.898 193.365 253.882 194.375 252.639 194.375Z" stroke="#055087" stroke-width="0.5"/>
<path d="M214.54 74.786C214.121 75.2099 213.553 75.4415 212.951 75.4436H212.941H120.39C119.147 75.4436 118.13 74.434 118.13 73.1928C118.13 71.9422 119.147 70.9331 120.39 70.9331H210.432H210.682V70.6831V30.796V30.546H210.432H175.765C175.171 30.546 174.589 30.3037 174.166 29.8836C173.745 29.4621 173.505 28.8748 173.505 28.2803V28.2798C173.481 15.3395 162.936 4.79413 149.998 4.77016L149.997 4.77016C137.06 4.79432 126.515 15.3395 126.491 28.2767V28.2772C126.491 28.8718 126.248 29.4624 125.829 29.8811L125.992 30.0443L125.829 29.8811C125.407 30.3033 124.828 30.5429 124.231 30.5429C124.231 30.5429 124.231 30.5429 124.231 30.5429L89.5635 30.534L89.3134 30.5339V30.784V73.0644C89.3134 74.3067 88.2959 75.3242 87.0537 75.3242C85.803 75.3242 84.7939 74.3072 84.7939 73.0644V28.2767C84.7939 27.6833 85.036 27.1013 85.4559 26.6785C85.8685 26.266 86.4559 26.0229 87.0537 26.0229H121.832H122.061L122.081 25.7949C122.694 18.8476 125.863 12.413 131.013 7.6684L131.013 7.66821C136.192 2.88557 142.932 0.25 149.998 0.25C157.055 0.25 163.804 2.88558 168.987 7.67119L168.987 7.67139C174.137 12.4158 177.303 18.8476 177.918 25.7979L177.939 26.0259H178.167H212.946C213.539 26.0259 214.121 26.2679 214.541 26.6817C214.963 27.1041 215.206 27.6919 215.206 28.2797V73.1959C215.206 73.7989 214.972 74.3618 214.542 74.7832L214.54 74.786ZM103.654 75.4436C102.411 75.4436 101.395 74.434 101.395 73.1928C101.395 71.9422 102.412 70.9331 103.654 70.9331C104.906 70.9331 105.914 71.9416 105.914 73.1928C105.914 74.4346 104.906 75.4436 103.654 75.4436Z" stroke="#055087" stroke-width="0.5"/>
<path d="M157.824 237.967H47.3593C46.117 237.967 45.0996 236.949 45.0996 235.707C45.0996 234.465 46.1171 233.447 47.3593 233.447H157.824C159.066 233.447 160.083 234.465 160.083 235.707C160.083 236.949 159.066 237.967 157.824 237.967Z" stroke="#055087" stroke-width="0.5"/>
<path d="M192.102 259.264C192.099 260.507 191.081 261.524 189.839 261.524H47.3518C46.1095 261.524 45.092 260.507 45.092 259.265C45.092 258.022 46.1095 257.005 47.3518 257.005H189.842C191.084 257.005 192.101 258.022 192.102 259.264Z" stroke="#055087" stroke-width="0.5"/>
<path d="M252.639 305.13H111.809C110.566 305.13 109.549 304.121 109.549 302.87C109.549 301.628 110.566 300.61 111.809 300.61H252.639C253.881 300.61 254.899 301.628 254.899 302.87C254.899 304.121 253.882 305.13 252.639 305.13Z" stroke="#055087" stroke-width="0.5"/>
<path d="M252.639 328.689H47.3593C46.1165 328.689 45.0996 327.68 45.0996 326.43C45.0996 325.187 46.1171 324.17 47.3593 324.17H252.639C253.881 324.17 254.898 325.187 254.898 326.43C254.898 327.68 253.881 328.689 252.639 328.689Z" stroke="#055087" stroke-width="0.5"/>
<path d="M149.999 57.9659L149.999 57.966C143.175 57.9568 137.625 52.4069 137.616 45.5746C137.616 38.7514 143.175 33.2012 149.999 33.2012C153.303 33.2012 156.409 34.4894 158.75 36.8268C161.087 39.1643 162.376 42.2709 162.382 45.5782C162.381 52.4073 156.82 57.9577 149.999 57.9659ZM142.136 45.5743L142.136 45.5754C142.145 49.9046 145.669 53.4375 149.998 53.4468L150 53.4468C154.33 53.4375 157.853 49.9046 157.862 45.5754V45.5749C157.862 41.2476 154.338 37.7212 150 37.7119L149.998 37.7119C145.669 37.7212 142.145 41.254 142.136 45.5743Z" stroke="#055087" stroke-width="0.5"/>
</svg>
