<svg width="316" height="302" viewBox="0 0 316 302" fill="none" xmlns="http://www.w3.org/2000/svg">
<path d="M137.549 267.349L120.225 297.366L120.224 297.366L119.292 298.983L119.292 298.669C117.161 301.106 113.745 302.111 110.567 301.098C88.811 294.165 68.816 282.607 51.9497 267.219L52.2385 266.902L51.9496 267.218C49.084 264.602 48.4275 260.342 50.3692 256.981L51.3021 255.367L67.6908 226.981C58.8077 216.39 51.8404 204.333 47.0979 191.349L12.4607 191.349C8.5768 191.352 5.21636 188.648 4.38815 184.853M137.549 267.349L4.87664 184.747M137.549 267.349C151.163 269.733 165.087 269.733 178.701 267.349L196.026 297.366C197.965 300.727 201.982 302.286 205.681 301.112L205.681 301.112C227.435 294.174 247.432 282.607 264.293 267.21C267.16 264.592 267.817 260.334 265.873 256.973L248.556 226.981C257.437 216.392 264.406 204.337 269.149 191.356L303.782 191.356L303.782 191.356L303.782 190.856M137.549 267.349L269.149 110.651L303.779 110.651L303.78 110.651L303.78 111.151M4.38815 184.853L4.87664 184.747M4.38815 184.853C4.38815 184.854 4.38824 184.854 4.38824 184.854L4.87664 184.747M4.38815 184.853C-0.496742 162.548 -0.49668 139.452 4.38824 117.147C5.21859 113.356 8.57897 110.652 12.4604 110.654L47.0979 110.654M4.87664 184.747C0.00713405 162.512 0.00713506 139.488 4.87664 117.254C5.65676 113.692 8.81384 111.152 12.4604 111.154L47.4481 111.154M47.0979 110.654C47.0577 110.764 47.0178 110.874 46.9779 110.984L47.4481 111.154M47.0979 110.654C51.8403 97.6701 58.8076 85.6112 67.6885 75.0203M47.0979 110.654L47.4481 110.654L47.4481 111.154M47.4481 111.154L67.6885 75.0203M67.6885 75.0203L67.8638 75.3238L68.2968 75.0738L67.9146 74.7514C67.8391 74.8409 67.7638 74.9305 67.6885 75.0203ZM67.6885 75.0203L50.3692 45.0284C48.4275 41.6675 49.0842 37.4095 51.9494 34.7913L51.9496 34.7911C68.8159 19.3938 88.8109 7.82969 110.567 0.889051L110.567 0.888899C114.266 -0.286992 118.285 1.27215 120.225 4.63531M67.6885 75.0203L110.719 1.3654C114.193 0.260729 117.97 1.72542 119.792 4.88509M120.225 4.63531L120.225 4.63524L119.792 4.88509M120.225 4.63531L137.549 34.665M120.225 4.63531L119.792 4.88509M119.792 4.88509L137.291 35.2184M265.444 44.7692L265.441 44.7675C265.441 44.7673 265.441 44.7671 265.442 44.767C265.635 44.4321 265.801 44.0878 265.94 43.7368L265.94 44.767L265.94 44.7692L265.444 44.7692ZM265.444 44.7692L265.44 44.7692L265.439 44.7686L265.439 44.7692L264.94 45.6332L264.94 46.632L265.312 45.99L265.872 45.019L265.873 45.0169L265.444 44.7692ZM137.549 34.665L205.529 1.37868C202.053 0.276247 198.281 1.74318 196.459 4.90284L178.959 35.2184M137.549 34.665L137.724 34.9686L137.291 35.2184M137.549 34.665C137.434 34.6852 137.318 34.7056 137.203 34.7262L137.291 35.2184M137.291 35.2184C151.072 32.7564 165.178 32.7564 178.959 35.2184M178.959 35.2184L179.047 34.7262C178.932 34.7056 178.817 34.6852 178.701 34.665L178.526 34.9685L178.959 35.2184ZM51.3021 256.368L51.3021 255.368L50.3702 256.982L50.3691 256.984L50.7982 257.231L50.3021 257.231L50.3021 257.234L51.3021 256.368ZM51.3021 256.368L50.8034 257.231L50.8031 257.232L51.3021 256.368ZM303.782 190.856C307.433 190.858 310.592 188.313 311.368 184.746C316.211 162.51 316.211 139.491 311.368 117.254C310.588 113.689 307.429 111.147 303.78 111.151M303.782 190.856L268.799 190.856L303.782 190.856ZM303.78 111.151L268.799 111.151L303.78 111.151ZM196.025 4.65303L196.458 4.9027L196.026 4.65288L196.025 4.65303ZM248.556 75.0198C248.481 74.9301 248.406 74.8405 248.33 74.751L247.948 75.0734L248.381 75.3234L248.556 75.0198ZM111.102 198.025C98.7619 185.681 91.7638 168.988 91.6034 151.547L91.6137 151.548L91.6137 151.002C91.6137 133.355 98.624 116.429 111.102 103.951L110.777 103.626L111.102 103.951C123.578 91.4709 140.503 84.4617 158.147 84.464C175.792 84.4662 192.714 91.4799 205.189 103.96C217.663 116.442 224.669 133.37 224.664 151.017C224.662 168.666 217.647 185.59 205.167 198.063C192.685 210.539 175.76 217.546 158.116 217.539C140.481 217.517 123.573 210.499 111.102 198.025Z" stroke="#055087"/>
</svg>
