<svg width="300" height="643" viewBox="0 0 300 643" fill="none" xmlns="http://www.w3.org/2000/svg">
<path d="M139.21 446.429L139.211 446.43C142.583 448.462 146.305 449.424 149.967 449.424C157.082 449.424 164.008 445.804 167.921 439.252L167.922 439.251L232.197 332.126L232.197 332.125C236.088 325.661 236.19 317.604 232.468 311.057L232.468 311.056C228.764 304.508 221.795 300.449 214.261 300.449H123.549H122.665L123.12 299.692L167.939 225.03L139.21 446.429ZM139.21 446.429C129.29 440.489 126.089 427.64 132.032 417.718L176.851 343.056L177.306 342.299M139.21 446.429L177.306 342.299M177.306 342.299H176.422M177.306 342.299H176.422M176.422 342.299H85.7102C78.176 342.299 71.2071 338.24 67.5032 331.692L67.5027 331.691M176.422 342.299L67.5027 331.691M67.5027 331.691C63.7806 325.144 63.8832 317.087 67.7738 310.623L67.7741 310.622M67.5027 331.691L67.7741 310.622M67.7741 310.622L132.049 203.497L132.049 203.497M67.7741 310.622L132.049 203.497M132.049 203.497C137.99 193.577 150.839 190.376 160.761 196.319M132.049 203.497L160.761 196.319M160.761 196.319C170.681 202.26 173.882 215.108 167.94 225.03L160.761 196.319Z" stroke="#055087"/>
<mask id="path-2-inside-1_205_1025" fill="white">
<path fill-rule="evenodd" clip-rule="evenodd" d="M7.19846 69.6476L70.5516 6.27508C78.9304 -2.10369 92.4933 -2.07969 100.867 6.27508C109.246 14.6538 109.246 28.2167 100.867 36.5908L73.1955 64.2711H278.541C290.368 64.2711 299.966 73.8693 299.966 85.6961V235.671C299.966 247.498 290.368 257.096 278.541 257.096C266.714 257.096 257.116 247.498 257.116 235.671V107.121H73.1676L100.837 134.799C109.192 143.178 109.192 156.741 100.837 165.115C96.6384 169.295 91.1529 171.394 85.6916 171.394C80.2062 171.394 74.7209 169.295 70.5215 165.115L6.26608 100.84C-2.08869 92.4613 -2.08869 78.8984 6.26608 70.5243C6.57021 70.221 6.88117 69.9288 7.19846 69.6476Z"/>
</mask>
<path d="M7.19846 69.6476L7.86177 70.3959L7.88435 70.3759L7.90567 70.3546L7.19846 69.6476ZM70.5516 6.27508L69.8445 5.56797L69.8444 5.56808L70.5516 6.27508ZM100.867 6.27508L101.574 5.56797L101.574 5.56716L100.867 6.27508ZM100.867 36.5908L100.16 35.8835L100.16 35.8838L100.867 36.5908ZM73.1955 64.2711L72.4883 63.5641L70.7818 65.2711H73.1955V64.2711ZM257.116 107.121H258.116V106.121H257.116V107.121ZM73.1676 107.121V106.121H70.7539L72.4603 107.828L73.1676 107.121ZM100.837 134.799L101.545 134.093L101.544 134.092L100.837 134.799ZM100.837 165.115L101.543 165.824L101.545 165.821L100.837 165.115ZM70.5215 165.115L69.8143 165.822L69.816 165.824L70.5215 165.115ZM6.26608 100.84L5.55796 101.546L5.55886 101.547L6.26608 100.84ZM6.26608 70.5243L5.55998 69.8162L5.55815 69.818L6.26608 70.5243ZM7.90567 70.3546L71.2588 6.98208L69.8444 5.56808L6.49124 68.9406L7.90567 70.3546ZM71.2587 6.98219C79.2458 -1.00488 92.1761 -0.983512 100.161 6.983L101.574 5.56716C92.8104 -3.17587 78.615 -3.2025 69.8445 5.56797L71.2587 6.98219ZM100.16 6.98219C108.149 14.9705 108.148 27.9001 100.16 35.8835L101.574 37.2982C110.344 28.5334 110.344 14.3372 101.574 5.56797L100.16 6.98219ZM100.16 35.8838L72.4883 63.5641L73.9027 64.9781L101.575 37.2978L100.16 35.8838ZM73.1955 65.2711H278.541V63.2711H73.1955V65.2711ZM278.541 65.2711C289.816 65.2711 298.966 74.4216 298.966 85.6961H300.966C300.966 73.317 290.92 63.2711 278.541 63.2711V65.2711ZM298.966 85.6961V235.671H300.966V85.6961H298.966ZM298.966 235.671C298.966 246.946 289.816 256.096 278.541 256.096V258.096C290.92 258.096 300.966 248.05 300.966 235.671H298.966ZM278.541 256.096C267.267 256.096 258.116 246.946 258.116 235.671H256.116C256.116 248.05 266.162 258.096 278.541 258.096V256.096ZM258.116 235.671V107.121H256.116V235.671H258.116ZM257.116 106.121H73.1676V108.121H257.116V106.121ZM72.4603 107.828L100.13 135.506L101.544 134.092L73.8748 106.414L72.4603 107.828ZM100.129 135.505C108.095 143.494 108.095 156.425 100.129 164.409L101.545 165.821C110.29 157.057 110.289 142.862 101.545 134.093L100.129 135.505ZM100.132 164.406C96.1261 168.394 90.8969 170.394 85.6916 170.394V172.394C91.4089 172.394 97.1506 170.196 101.543 165.824L100.132 164.406ZM85.6916 170.394C80.4617 170.394 75.2327 168.393 71.2269 164.406L69.816 165.824C74.2091 170.196 79.9508 172.394 85.6916 172.394V170.394ZM71.2287 164.408L6.97329 100.133L5.55886 101.547L69.8143 165.822L71.2287 164.408ZM6.9742 100.134C-0.991508 92.1454 -0.991226 79.2143 6.974 71.2306L5.55815 69.818C-3.18616 78.5826 -3.18588 92.7772 5.55796 101.546L6.9742 100.134ZM6.97217 71.2324C7.26242 70.943 7.55912 70.6642 7.86177 70.3959L6.53514 68.8992C6.20322 69.1934 5.87799 69.4991 5.55998 69.8162L6.97217 71.2324Z" fill="#055087" mask="url(#path-2-inside-1_205_1025)"/>
<mask id="path-4-inside-2_205_1025" fill="white">
<path fill-rule="evenodd" clip-rule="evenodd" d="M21.4411 578.478H226.834L199.145 606.175C190.766 614.554 190.766 628.093 199.145 636.471C203.32 640.651 208.805 642.751 214.291 642.751C219.777 642.751 225.286 640.651 229.461 636.471L293.716 572.196C302.095 563.817 302.095 550.279 293.716 541.9C293.475 541.659 293.23 541.425 292.981 541.198L229.432 477.629C221.057 469.25 207.471 469.25 199.116 477.629C190.761 486.008 190.761 499.547 199.116 507.925L226.81 535.628H42.8661V407.078C42.8661 395.232 33.268 385.653 21.4411 385.653C9.61427 385.653 0.0161133 395.232 0.0161133 407.078V557.053C0.0161133 568.899 9.61427 578.478 21.4411 578.478Z"/>
</mask>
<path d="M226.834 578.478L227.541 579.185L229.247 577.478H226.834V578.478ZM199.145 606.175L199.852 606.882L199.852 606.882L199.145 606.175ZM199.145 636.471L199.853 635.765L199.852 635.764L199.145 636.471ZM229.461 636.471L228.754 635.764L228.753 635.765L229.461 636.471ZM293.716 572.196L293.009 571.489L293.009 571.489L293.716 572.196ZM293.716 541.9L293.009 542.607L293.009 542.607L293.716 541.9ZM292.981 541.198L292.274 541.905L292.29 541.921L292.307 541.937L292.981 541.198ZM229.432 477.629L228.724 478.336L228.724 478.336L229.432 477.629ZM199.116 477.629L199.824 478.335L199.824 478.335L199.116 477.629ZM199.116 507.925L198.408 508.631L198.409 508.632L199.116 507.925ZM226.81 535.628V536.628H229.224L227.518 534.921L226.81 535.628ZM42.8661 535.628H41.8661V536.628H42.8661V535.628ZM226.834 577.478H21.4411V579.478H226.834V577.478ZM199.852 606.882L227.541 579.185L226.126 577.771L198.438 605.468L199.852 606.882ZM199.852 635.764C191.864 627.776 191.864 614.871 199.852 606.882L198.438 605.468C189.669 614.238 189.669 628.409 198.438 637.178L199.852 635.764ZM214.291 641.751C209.06 641.751 203.833 639.749 199.853 635.765L198.438 637.178C202.807 641.553 208.55 643.751 214.291 643.751V641.751ZM228.753 635.765C224.774 639.749 219.523 641.751 214.291 641.751V643.751C220.03 643.751 225.798 641.554 230.168 637.178L228.753 635.765ZM293.009 571.489L228.754 635.764L230.168 637.178L294.424 572.903L293.009 571.489ZM293.009 542.607C300.997 550.596 300.997 563.501 293.009 571.489L294.423 572.903C303.193 564.134 303.193 549.962 294.423 541.193L293.009 542.607ZM292.307 541.937C292.545 542.154 292.779 542.377 293.009 542.607L294.424 541.193C294.172 540.941 293.915 540.696 293.655 540.459L292.307 541.937ZM228.724 478.336L292.274 541.905L293.688 540.491L230.139 476.922L228.724 478.336ZM199.824 478.335C207.787 470.349 220.74 470.348 228.724 478.336L230.139 476.922C221.375 468.153 207.154 468.152 198.408 476.923L199.824 478.335ZM199.824 507.219C191.858 499.231 191.858 486.324 199.824 478.335L198.408 476.923C189.664 485.692 189.664 499.862 198.408 508.631L199.824 507.219ZM227.518 534.921L199.823 507.218L198.409 508.632L226.103 536.335L227.518 534.921ZM42.8661 536.628H226.81V534.628H42.8661V536.628ZM41.8661 407.078V535.628H43.8661V407.078H41.8661ZM21.4411 386.653C32.7163 386.653 41.8661 395.785 41.8661 407.078H43.8661C43.8661 394.68 33.8197 384.653 21.4411 384.653V386.653ZM1.01611 407.078C1.01611 395.785 10.166 386.653 21.4411 386.653V384.653C9.06256 384.653 -0.983887 394.68 -0.983887 407.078H1.01611ZM1.01611 557.053V407.078H-0.983887V557.053H1.01611ZM21.4411 577.478C10.166 577.478 1.01611 568.346 1.01611 557.053H-0.983887C-0.983887 569.452 9.06256 579.478 21.4411 579.478V577.478Z" fill="#055087" mask="url(#path-4-inside-2_205_1025)"/>
</svg>
