<svg width="302" height="413" viewBox="0 0 302 413" fill="none" xmlns="http://www.w3.org/2000/svg">
<path d="M0.5 411.416V411.916H1H301H301.5V411.416V340.262C301.506 256.553 233.652 190.083 151.005 190.083H151.002C68.3537 190.083 0.5 257.781 0.5 340.262V411.416Z" stroke="#055087"/>
<mask id="path-2-outside-1_205_1042" maskUnits="userSpaceOnUse" x="70.8333" y="0" width="161" height="161" fill="black">
<rect fill="white" x="70.8333" width="161" height="161"/>
<path d="M230.167 80.1667C230.167 123.891 194.724 159.333 151 159.333C107.276 159.333 71.8333 123.891 71.8333 80.1667C71.8333 36.4426 107.276 1 151 1C194.724 1 230.167 36.4426 230.167 80.1667"/>
</mask>
<path d="M229.167 80.1667C229.167 123.338 194.172 158.333 151 158.333V160.333C195.276 160.333 231.167 124.443 231.167 80.1667H229.167ZM151 158.333C107.828 158.333 72.8333 123.338 72.8333 80.1667H70.8333C70.8333 124.443 106.724 160.333 151 160.333V158.333ZM72.8333 80.1667C72.8333 36.9949 107.828 2 151 2V0C106.724 0 70.8333 35.8904 70.8333 80.1667H72.8333ZM151 2C194.172 2 229.167 36.9949 229.167 80.1667H231.167C231.167 35.8904 195.276 0 151 0V2Z" fill="#055087" mask="url(#path-2-outside-1_205_1042)"/>
</svg>
