<svg xmlns="http://www.w3.org/2000/svg" width="50" height="64" viewBox="0 0 50 64" fill="none">
<path d="M42.8571 10.2676H47.7678L39.7327 2.23242V7.14314C39.7327 8.00134 40.082 8.7767 40.6513 9.34906C41.223 9.91829 41.9977 10.2677 42.8572 10.2677L42.8571 10.2676Z" fill="#141413"/>
<path d="M49.9982 12.9459H42.8555C39.655 12.9403 37.0573 10.3433 37.0524 7.14279V0H0V63.3908H50L49.9982 12.9459ZM37.9454 24.1062C37.9454 24.8455 37.3456 25.4452 36.6064 25.4452H13.3928C12.6536 25.4452 12.0539 24.8455 12.0539 24.1062C12.0539 23.367 12.6536 22.7672 13.3928 22.7672H36.6064C37.345 22.7672 37.9454 23.367 37.9454 24.1062V24.1062ZM7.58921 15.1779C7.58921 14.4387 8.18895 13.8389 8.92819 13.8389H16.071C16.8102 13.8389 17.41 14.4387 17.41 15.1779C17.41 15.9172 16.8102 16.5169 16.071 16.5169H8.92819C8.18957 16.5175 7.58921 15.9172 7.58921 15.1779ZM13.3929 31.6953H36.6065C37.3457 31.6953 37.9454 32.295 37.9454 33.0342C37.9454 33.7735 37.3457 34.3732 36.6065 34.3732H13.3929C12.6537 34.3732 12.0539 33.7735 12.0539 33.0342C12.0533 32.295 12.6537 31.6953 13.3929 31.6953V31.6953ZM37.6922 46.1446C37.2581 46.7431 36.4198 46.877 35.8208 46.4429L31.0483 42.984L27.3421 48.7204C26.9759 49.2871 26.2447 49.4927 25.6376 49.1999L19.5679 46.2841L14.268 50.859C13.7082 51.3423 12.8618 51.2806 12.3791 50.7208C11.8958 50.1609 11.9574 49.3145 12.5173 48.8318L18.4811 43.6838C18.8847 43.3344 19.4558 43.2591 19.9366 43.4902L25.7317 46.2747L29.5656 40.3426C29.7655 40.0337 30.0825 39.8213 30.4431 39.7535C30.8049 39.6856 31.1767 39.7703 31.475 39.9857L37.3915 44.2742C37.9924 44.707 38.1264 45.5453 37.6923 46.1444L37.6922 46.1446Z" fill="#141413"/>
</svg>