<svg width="302" height="333" viewBox="0 0 302 333" fill="none" xmlns="http://www.w3.org/2000/svg">
<path d="M209.69 0.5C178.209 0.541524 149.159 16.8047 132.446 43.0777C126.293 41.1434 119.873 40.1253 113.383 40.1071H113.382H113.361C78.017 40.1071 49.1335 69.0087 48.9355 104.466C30.2316 112.97 17.1737 131.839 17.1737 153.773C17.1737 183.658 41.4516 208.052 71.2048 208.052H95.5246V255.952H74.2063C69.5328 240.368 55.2258 228.822 38.2394 228.822C17.5093 228.822 0.5 245.913 0.5 266.734C0.5 287.553 17.5079 304.726 38.2394 304.726C55.204 304.726 69.4922 293.168 74.1875 277.596L106.254 277.594C109.129 277.606 111.885 276.462 113.916 274.424L113.916 274.424C115.946 272.385 117.082 269.615 117.07 266.732V208.053H185.914V257.816C170.408 262.536 158.906 276.907 158.906 293.946C158.906 314.768 175.997 331.837 196.726 331.837C217.456 331.837 234.465 314.765 234.465 293.946C234.465 276.885 222.976 262.498 207.458 257.795L207.46 208.053H247.469C277.222 208.053 301.5 183.659 301.5 153.774C301.5 144.189 298.949 135.198 294.631 127.435C299.113 116.444 301.465 104.675 301.5 92.7579V92.7565V92.7173C301.5 68.2631 291.822 44.8112 274.609 27.5163L274.254 27.869L274.608 27.5163C257.397 10.2254 234.05 0.500819 209.705 0.500819H209.69L209.69 0.5ZM218.064 99.0177L218.072 99.0224C220.295 100.421 221.866 102.659 222.429 105.232L222.429 105.233C222.994 107.807 222.505 110.501 221.074 112.709C219.64 114.918 217.387 116.454 214.815 116.976L214.906 117.423L214.815 116.976C212.246 117.497 209.575 116.959 207.405 115.479L207.397 115.474C196.426 108.298 183.657 104.489 170.565 104.489C157.781 104.489 145.227 108.124 134.429 114.978V114.947L133.648 115.479C131.475 116.959 128.806 117.497 126.235 116.976C123.665 116.455 121.41 114.918 119.979 112.709L119.978 112.708C118.545 110.501 118.058 107.807 118.621 105.232C119.187 102.658 120.758 100.42 122.978 99.0224L122.978 99.0225L122.986 99.0177C137.128 89.7667 153.688 84.8486 170.565 84.8486C187.44 84.8486 203.922 89.7662 218.064 99.0177ZM206.139 124.52L206.194 124.561C208.88 126.699 210.259 130.095 209.825 133.516C209.389 136.961 207.176 139.92 204.004 141.301L204.004 141.301C200.836 142.681 197.177 142.278 194.376 140.246C187.487 135.075 179.164 132.307 170.564 132.307C161.968 132.307 153.58 135.081 146.689 140.249L146.689 140.249L146.68 140.256C144.609 141.889 141.97 142.616 139.36 142.27C136.752 141.924 134.389 140.535 132.814 138.415L132.814 138.415C131.236 136.295 130.577 133.625 130.985 131.011L130.491 130.934L130.985 131.011C131.393 128.396 132.834 126.059 134.98 124.524L134.98 124.524L134.99 124.517C145.254 116.821 157.756 112.666 170.565 112.666C183.378 112.666 195.873 116.817 206.139 124.52ZM170.168 142.519H170.565C179.819 142.519 188.52 146.944 194.122 154.355L194.468 154.813L194.481 154.8C195.988 156.798 196.683 159.306 196.406 161.813L196.406 161.813C196.111 164.499 194.728 166.945 192.581 168.574C190.432 170.202 187.715 170.868 185.062 170.419C182.411 169.968 180.061 168.438 178.566 166.191L178.558 166.179L178.549 166.167C176.636 163.638 173.736 162.158 170.567 162.158C167.402 162.158 164.418 163.636 162.502 166.166L162.496 166.174L162.491 166.183C160.965 168.378 158.62 169.852 155.989 170.268L156.068 170.762L155.989 170.268C153.362 170.685 150.677 170.006 148.556 168.39C146.436 166.773 145.061 164.359 144.751 161.701C144.441 159.044 145.222 156.373 146.915 154.308L146.922 154.301L146.927 154.293C152.447 146.997 161.061 142.642 170.168 142.519ZM194.838 154.443C196.451 156.552 197.196 159.211 196.903 161.868C196.593 164.69 195.14 167.261 192.883 168.972C190.624 170.684 187.767 171.384 184.979 170.912C182.191 170.437 179.721 168.83 178.15 166.468L194.838 154.443Z" stroke="#055087"/>
</svg>
