<svg width="300" height="296" viewBox="0 0 300 296" fill="none" xmlns="http://www.w3.org/2000/svg">
<rect x="0.5" y="0.5" width="299" height="293.939" rx="19.5" stroke="#055087"/>
<path d="M214.992 151.471V295.173H209.121V153.821V153.478L208.801 153.354L146.47 129.265C145.337 128.826 144.59 127.739 144.59 126.525V0.717773H150.46V124.175V124.518L150.78 124.641L213.111 148.731C214.245 149.169 214.992 150.257 214.992 151.471Z" stroke="#055087"/>
<path d="M247.259 91.7541L244.728 97.055L198.556 75.0358C197.534 74.5487 196.885 73.5191 196.885 72.3837V0.711914H202.755V70.2181V70.5336L203.04 70.6694L247.259 91.7541Z" stroke="#055087"/>
<path d="M249.926 102.497C249.926 97.2431 254.202 92.9644 259.461 92.9644C264.724 92.9644 268.998 97.2407 268.996 102.497H249.926ZM249.926 102.497C249.926 107.755 254.205 112.032 259.461 112.032M249.926 102.497L259.461 112.032M259.461 112.032C264.719 112.032 268.996 107.753 268.996 102.497L259.461 112.032ZM259.461 117.902C250.966 117.902 244.053 110.989 244.053 102.494C244.053 93.9991 250.966 87.0908 259.461 87.0908C267.956 87.0908 274.869 94.0039 274.869 102.494C274.869 110.987 267.956 117.902 259.461 117.902Z" stroke="#055087"/>
<path d="M256.307 265.841C247.812 265.841 240.899 258.928 240.899 250.433C240.899 241.938 247.812 235.025 256.307 235.025C264.802 235.025 271.71 241.938 271.71 250.433C271.71 258.929 264.802 265.841 256.307 265.841ZM256.307 240.899C251.049 240.899 246.772 245.178 246.772 250.434C246.772 255.692 251.051 259.969 256.307 259.969C261.561 259.969 265.84 255.69 265.84 250.434C265.84 245.176 261.564 240.899 256.307 240.899Z" stroke="#055087"/>
<path d="M86.2603 102.494C86.2603 110.989 93.1685 117.902 101.663 117.902C110.158 117.902 117.069 110.987 117.071 102.494H86.2603ZM86.2603 102.494C86.2603 93.9989 93.1683 87.0908 101.663 87.0908M86.2603 102.494L101.663 87.0908M101.663 87.0908C110.158 87.0908 117.071 94.0038 117.071 102.494L101.663 87.0908ZM101.663 92.9644C96.4097 92.9644 92.1308 97.2431 92.1308 102.497C92.1308 107.755 96.4095 112.032 101.663 112.032C106.922 112.032 111.198 107.753 111.198 102.497C111.198 97.2408 106.919 92.9644 101.663 92.9644Z" stroke="#055087"/>
<path d="M44.2642 64.1733C35.769 64.1733 28.8562 57.2603 28.8562 48.7703C28.8562 40.2778 35.769 33.3672 44.2642 33.3672C52.7593 33.3672 59.6722 40.2802 59.6722 48.7703C59.6722 57.2626 52.7569 64.1733 44.2642 64.1733ZM44.2642 39.2359C39.0058 39.2359 34.7292 43.5146 34.7292 48.7684C34.7292 54.0221 39.008 58.3009 44.2642 58.3009C49.5226 58.3009 53.7991 54.0222 53.7991 48.7684C53.7991 43.5123 49.5227 39.2359 44.2642 39.2359Z" stroke="#055087"/>
<path d="M53.5591 210.486C45.0641 210.486 38.1511 203.573 38.1511 195.078C38.1511 186.583 45.0639 179.675 53.5591 179.675C62.0541 179.675 68.9622 186.583 68.9622 195.078C68.9622 203.575 62.054 210.486 53.5591 210.486ZM53.5591 185.548C48.3007 185.548 44.0241 189.827 44.0241 195.081C44.0241 200.339 48.3029 204.616 53.5591 204.616C58.8128 204.616 63.0916 200.337 63.0916 195.081C63.0916 189.822 58.8152 185.548 53.5591 185.548Z" stroke="#055087"/>
<path d="M111.093 240.647H3.93066V234.776H114.529C116.153 234.776 117.465 236.089 117.465 237.713L117.464 294.259H111.593V241.147V240.647H111.093Z" stroke="#055087"/>
<path d="M166.55 202.912V294.258H160.679V205.237V204.899L160.366 204.773L100.566 180.7L100.566 180.7C99.4544 180.254 98.7253 179.175 98.7253 177.977V117.954H104.596V175.652V175.99L104.909 176.116L164.709 200.188L164.709 200.189C165.821 200.635 166.55 201.714 166.55 202.912Z" stroke="#055087"/>
<path d="M255.484 165.984L255.484 165.984L297.512 153.656L299.163 159.294L259.602 170.896L259.243 171.001L259.243 171.376L259.243 234.976H253.372V168.801C253.372 167.497 254.232 166.35 255.484 165.984Z" stroke="#055087"/>
<path d="M56.5007 109.799L56.5006 181.284H50.63V112.484V112.093L50.2507 111.998L3.21125 100.297L4.62606 94.603L54.2726 106.951C54.2726 106.951 54.2726 106.951 54.2726 106.951C55.5814 107.277 56.5007 108.452 56.5007 109.799Z" stroke="#055087"/>
<path d="M99.4241 51.7009H58.8174V45.8303H95.9922H96.4922V45.3303V0.711914H102.363V48.7665C102.361 50.3719 101.075 51.6739 99.4746 51.7009H99.4241Z" stroke="#055087"/>
</svg>
