<svg width="300" height="473" viewBox="0 0 300 473" fill="none" xmlns="http://www.w3.org/2000/svg">
<path d="M216.805 55.5353L216.884 55.9395H217.296H286.848C293.834 55.9395 299.5 61.6052 299.5 68.5914C299.5 75.588 293.834 81.2536 286.848 81.2536H217.296H216.884L216.805 81.6577C210.691 112.957 183.063 136.673 149.99 136.673C116.938 136.673 89.3297 112.957 83.2288 81.6613L83.15 81.257H82.738H13.1656C6.16588 81.257 0.5 75.5877 0.5 68.5914C0.5 61.6057 6.16894 55.9395 13.1656 55.9395H82.7278H83.1397L83.2186 55.5352C89.3299 24.216 116.938 0.5 149.99 0.5C183.069 0.5 210.691 24.2162 216.805 55.5353ZM107.256 68.588C107.256 92.1734 126.418 111.356 149.991 111.356C173.583 111.356 192.779 92.1741 192.779 68.588C192.779 44.9918 173.583 25.8098 149.991 25.8098C126.418 25.8098 107.256 44.9968 107.256 68.588Z" stroke="#055087"/>
<path d="M110.238 350.549C110.238 328.613 128.073 310.756 150.008 310.756C171.944 310.756 189.801 328.619 189.801 350.552V431.967C189.801 453.903 171.944 471.76 150.008 471.76C128.076 471.76 110.238 453.904 110.238 431.967V350.549Z" stroke="#055087"/>
<path d="M220.993 396.288L220.993 396.288C218.681 398.197 215.826 399.178 212.945 399.178C211.185 399.178 209.423 398.809 207.761 398.068L207.546 397.967C203.117 395.869 200.287 391.418 200.281 386.516V349.414C200.281 321.687 177.718 299.138 149.994 299.138C122.267 299.138 99.7182 321.691 99.7182 349.414V386.487C99.7182 391.382 96.8983 395.842 92.4603 397.937C88.0351 400.021 82.8008 399.363 79.0106 396.254C57.4451 378.463 45.0752 352.245 45.0752 324.346V235.064C45.0752 183.702 86.8573 141.917 138.205 141.917H161.8C213.171 141.917 254.956 183.706 254.956 235.064V324.346C254.956 352.286 242.582 378.508 220.993 396.288Z" stroke="#055087"/>
</svg>
