<svg width="50" height="60" viewBox="0 0 50 60" fill="none" xmlns="http://www.w3.org/2000/svg">
<path fill-rule="evenodd" clip-rule="evenodd" d="M24.9994 59.8913C11.1925 59.8913 0 52.9952 0 44.4879C0 35.981 11.1925 29.0855 24.9994 29.0855C38.8075 29.0855 50 35.9808 50 44.4879C50 52.9948 38.8075 59.8913 24.9994 59.8913V59.8913ZM24.9994 27.0532V27.0528C21.4138 27.0446 17.9786 25.6128 15.448 23.0723C12.9175 20.5322 11.4995 17.0908 11.5052 13.5052C11.5109 9.91962 12.94 6.48303 15.4784 3.95027C18.0168 1.41795 21.4569 -0.00298883 25.0425 4.72039e-06C28.6281 0.00303641 32.066 1.4297 34.6004 3.9659C37.1348 6.50254 38.558 9.94135 38.558 13.5273C38.5537 17.1186 37.1228 20.5616 34.58 23.0978C32.0373 25.6344 28.5911 27.0571 24.9996 27.0528L24.9994 27.0532Z" fill="#C6C6C6"/>
</svg>
