<svg width="60" height="56" viewBox="0 0 60 56" fill="none" xmlns="http://www.w3.org/2000/svg">
<path d="M3.70747 43.0469L0 55.3856H7.69239L11.3847 43.0778H4.16901C4.01448 43.0826 3.85995 43.0723 3.70747 43.0469V43.0469Z" fill="#C6C6C6"/>
<path d="M29.8703 24.6157H50.769C51.5849 24.6157 52.3679 24.2915 52.9449 23.7145C53.5218 23.1376 53.846 22.3546 53.846 21.5387H56.9229C57.7389 21.5387 58.5218 21.2145 59.0988 20.6376C59.6757 20.0607 59.9999 19.2777 59.9999 18.4617V6.15391C59.9999 5.33798 59.6757 4.55499 59.0988 3.97807C58.5218 3.40115 57.7389 3.07696 56.9229 3.07696H53.846C53.846 2.26102 53.5218 1.47803 52.9449 0.901109C52.3679 0.324188 51.5849 0 50.769 0H25.9424C21.9945 0 18.1504 1.26581 14.9745 3.61129C11.7987 5.95681 9.45866 9.259 8.29785 13.0324L1.22982 36.0182C0.942729 36.9502 1.11512 37.9631 1.69411 38.7482C2.2731 39.5339 3.19 39.9975 4.16534 39.9996H13.3007C13.9148 39.9989 14.515 39.8142 15.0233 39.4694C15.5315 39.1246 15.9251 38.6363 16.1531 38.0655L18.4374 32.3519C19.3516 30.0668 20.9293 28.1087 22.9671 26.7295C25.0049 25.3503 27.4095 24.6141 29.8704 24.6148L29.8703 24.6157ZM29.5379 11.3847L34.1533 5.23083C34.6629 4.55087 35.6272 4.41352 36.3072 4.92313C36.9872 5.43275 37.1245 6.39705 36.6149 7.077L33.8456 10.7694H36.9226C37.505 10.7694 38.038 11.0983 38.299 11.6196C38.5593 12.1409 38.503 12.7646 38.1534 13.2309L33.5379 19.3848C33.0283 20.0648 32.064 20.2021 31.3841 19.6925C30.7041 19.1829 30.5668 18.2186 31.0764 17.5387L33.8456 13.8463H30.7687C30.1863 13.8463 29.6533 13.5173 29.3923 12.996C29.132 12.4747 29.1883 11.8511 29.5379 11.3847Z" fill="#C6C6C6"/>
</svg>
