<svg width="50" height="75" viewBox="0 0 50 75" fill="none" xmlns="http://www.w3.org/2000/svg">
<path fill-rule="evenodd" clip-rule="evenodd" d="M23.7505 73.7491C23.7505 74.4392 24.3102 74.9989 25.0003 74.9989C25.6903 74.9989 26.2497 74.4392 26.2497 73.7491C26.2497 66.793 34.2203 50.2271 42.0838 43.4309C47.1886 38.864 50 32.3184 50 25C50 11.2147 38.7853 0 25 0C11.2147 0 0 11.215 0 25C0 32.3183 2.81138 38.8644 7.93245 43.4456C15.7803 50.2263 23.7505 66.7929 23.7505 73.7491ZM12.4775 25.0001C12.4775 31.8921 18.0846 37.4997 24.9771 37.4997C31.8697 37.4997 37.4767 31.8921 37.4767 25.0001C37.4767 18.1076 31.8697 12.5 24.9771 12.5C18.0846 12.5 12.4775 18.1076 12.4775 25.0001Z" fill="#C6C6C6"/>
</svg>
