<svg width="60" height="60" viewBox="0 0 60 60" fill="none" xmlns="http://www.w3.org/2000/svg">
<rect width="60" height="58.9877" rx="4" fill="#C6C6C6"/>
<path d="M42.5985 58.636V30.2956C42.5985 30.2185 42.5512 30.149 42.4782 30.1206L42.5985 58.636ZM42.5985 58.636H42.2244V30.7655V30.4227L41.9046 30.2991L29.4386 25.4813L42.5985 58.636ZM30.012 25.3027L42.478 30.1206L29.4383 25.4812C29.3654 25.4529 29.3181 25.3833 29.3181 25.3063V0.544922H29.6922V24.8363V25.1791L30.012 25.3027Z" fill="#C6C6C6" stroke="#F4F4F4"/>
<path d="M40.436 14.4945L48.9185 18.5392L48.757 18.8775L39.8835 14.6457C39.8187 14.6148 39.7771 14.5496 39.7771 14.4763V0.541992H40.1512V14.0432V14.3587L40.436 14.4945Z" fill="#C6C6C6" stroke="#F4F4F4"/>
<path d="M49.5853 20.4996C49.5853 19.2279 50.6197 18.1931 51.8923 18.1931C53.1657 18.1931 54.1998 19.2273 54.1993 20.4996H49.5853ZM49.5853 20.4996C49.5853 21.7723 50.6202 22.8066 51.8923 22.8066M49.5853 20.4996L51.8923 22.8066M51.8923 22.8066C53.1649 22.8066 54.1992 21.7718 54.1993 20.4998L51.8923 22.8066ZM51.8923 23.1806C50.4142 23.1806 49.2107 21.9771 49.2107 20.499C49.2107 19.0211 50.414 17.8184 51.8923 17.8184C53.3705 17.8184 54.5739 19.022 54.5739 20.499C54.5739 21.9766 53.3703 23.1806 51.8923 23.1806Z" fill="#C6C6C6" stroke="#F4F4F4"/>
<path d="M51.2613 52.7685C49.7832 52.7685 48.5797 51.565 48.5797 50.0869C48.5797 48.6088 49.7832 47.4053 51.2613 47.4053C52.7392 47.4053 53.9419 48.6086 53.9419 50.0869C53.9419 51.5652 52.7392 52.7685 51.2613 52.7685ZM51.2613 47.78C49.9886 47.78 48.9543 48.8149 48.9543 50.087C48.9543 51.3597 49.9892 52.394 51.2613 52.394C52.533 52.394 53.5678 51.3591 53.5678 50.087C53.5678 48.8145 52.5336 47.78 51.2613 47.78Z" fill="#C6C6C6" stroke="#F4F4F4"/>
<path d="M17.6521 20.499C17.6521 21.9773 18.8548 23.1806 20.3327 23.1806C21.8106 23.1806 23.0138 21.9768 23.0143 20.499H17.6521ZM17.6521 20.499C17.6521 19.0209 18.8546 17.8184 20.3327 17.8184M17.6521 20.499L20.3327 17.8184M20.3327 17.8184C21.8109 17.8184 23.0142 19.0219 23.0143 20.4988L20.3327 17.8184ZM20.3327 18.1931C19.0611 18.1931 18.0262 19.2279 18.0262 20.4996C18.0262 21.7722 19.061 22.8066 20.3327 22.8066C21.6054 22.8066 22.6397 21.7717 22.6397 20.4996C22.6397 19.2273 21.6047 18.1931 20.3327 18.1931Z" fill="#C6C6C6" stroke="#F4F4F4"/>
<path d="M8.85298 12.4354C7.37479 12.4354 6.17139 11.2318 6.17139 9.75483C6.17139 8.27738 7.37474 7.07422 8.85298 7.07422C10.3312 7.07422 11.5346 8.27782 11.5346 9.75483C11.5346 11.2322 10.3308 12.4354 8.85298 12.4354ZM8.85298 7.44796C7.5804 7.44796 6.54599 8.48278 6.54599 9.75446C6.54599 11.0262 7.5809 12.061 8.85298 12.061C10.1256 12.061 11.16 11.0262 11.16 9.75446C11.16 8.48226 10.1255 7.44796 8.85298 7.44796Z" fill="#C6C6C6" stroke="#F4F4F4"/>
<path d="M10.7121 41.6981C9.23402 41.6981 8.03052 40.4946 8.03052 39.0166C8.03052 37.5387 9.23382 36.3359 10.7121 36.3359C12.1902 36.3359 13.3927 37.5385 13.3927 39.0166C13.3927 40.4953 12.1901 41.6981 10.7121 41.6981ZM10.7121 36.7107C9.43953 36.7107 8.40512 37.7455 8.40512 39.0172C8.40512 40.2898 9.44002 41.3242 10.7121 41.3242C11.9838 41.3242 13.0186 40.2892 13.0186 39.0172C13.0186 37.7445 11.9842 36.7107 10.7121 36.7107Z" fill="#C6C6C6" stroke="#F4F4F4"/>
<path d="M22.2186 47.7306H1.18604V47.3564H22.9057C23.0096 47.3564 23.093 47.4398 23.093 47.5438L23.0927 58.4529H22.7186V48.2306V47.7306H22.2186Z" fill="#C6C6C6" stroke="#F4F4F4"/>
<path d="M32.9101 40.5828V58.452H32.536V41.0477V40.71L32.2227 40.5839L20.2629 35.7694L20.2624 35.7692C20.1918 35.7409 20.1453 35.6721 20.1453 35.5958V23.9912H20.5194V35.1308V35.4686L20.8327 35.5947L32.7925 40.4092L32.793 40.4093C32.8636 40.4377 32.9101 40.5065 32.9101 40.5828Z" fill="#C6C6C6" stroke="#F4F4F4"/>
<path d="M51.2093 33.581L51.2095 33.581L59.2311 31.228L59.3365 31.5878L51.8079 33.7957L51.4487 33.9011L51.4487 34.2755L51.4487 46.5956H51.0746V33.7607C51.0746 33.6776 51.1293 33.6044 51.2093 33.581Z" fill="#C6C6C6" stroke="#F4F4F4"/>
<path d="M1.12678 19.7672L1.21683 19.4048L10.7578 21.7778C10.8415 21.7986 10.9 21.8738 10.9 21.9593L10.9 35.8563H10.5259V22.4961V22.1053L10.1466 22.0109L1.12678 19.7672Z" fill="#C6C6C6" stroke="#F4F4F4"/>
<path d="M20.0727 9.75281C20.0723 9.85455 19.9918 9.93677 19.8906 9.93979H19.8849H12.1636V9.56567H19.1985H19.6985V9.06567V0.541992H20.0727L20.0727 9.7524C20.0727 9.75254 20.0727 9.75268 20.0727 9.75281Z" fill="#C6C6C6" stroke="#F4F4F4"/>
</svg>
