<svg width="60" height="67" viewBox="0 0 60 67" fill="none" xmlns="http://www.w3.org/2000/svg">
<path d="M41.7382 0C35.4506 0.00829322 29.6502 3.2699 26.3324 8.53419C25.0891 8.1352 23.7899 7.92509 22.4764 7.92141H22.4722C15.4376 7.92141 9.6916 13.6917 9.68691 20.7578C5.94922 22.4303 3.33475 26.1858 3.33475 30.5545C3.33475 36.4768 8.14598 41.3104 14.041 41.3104H19.0049V51.0905H14.5665C13.6662 47.9772 10.8242 45.6644 7.44789 45.6644C3.35753 45.6644 0 49.0375 0 53.1468C0 57.2561 3.35753 60.6453 7.44789 60.6453C10.8196 60.6453 13.658 58.3301 14.5628 55.2192L21.0513 55.2187C21.5993 55.221 22.1249 55.0031 22.5124 54.6142C22.8994 54.2253 23.1164 53.6969 23.1141 53.1468V41.3106H37.0828V51.4376C33.9858 52.3471 31.6813 55.2018 31.6813 58.5892C31.6813 62.6986 35.0548 66.0674 39.1452 66.0674C43.2355 66.0674 46.593 62.6981 46.593 58.5892C46.593 55.1972 44.2909 52.3393 41.1915 51.4335L41.192 41.3106H49.2938C55.1888 41.3106 60 36.4771 60 30.5548C60 28.6386 59.4854 26.8417 58.6155 25.2937C59.5189 23.0945 59.9931 20.7379 60 18.3513V18.3435C60 13.479 58.0748 8.81401 54.6508 5.3738C51.2273 1.93441 46.5834 0.000163713 41.7411 0.000163713L41.7382 0ZM33.9129 16.6697C37.3076 16.6697 40.6228 17.6589 43.4676 19.5198C43.935 19.8138 44.2652 20.2842 44.3835 20.8251C44.5023 21.366 44.3995 21.9322 44.0987 22.3961C43.7974 22.8606 43.3236 23.1835 42.7829 23.2932C42.2427 23.4029 41.6809 23.2895 41.2246 22.9785C39.0467 21.5539 36.5119 20.7979 33.9131 20.7979C31.3142 20.7979 28.7634 21.5544 26.5859 22.979C26.1291 23.29 25.5677 23.4029 25.0271 23.2932C24.4868 23.1836 24.0126 22.8606 23.7118 22.3962C23.4105 21.9322 23.3082 21.3659 23.4265 20.8251C23.5453 20.2842 23.8755 19.8138 24.3424 19.5198C27.1871 17.659 30.5182 16.6697 33.9129 16.6697ZM33.9129 22.2331C36.4972 22.2331 39.0173 23.0703 41.0879 24.624C41.6611 25.0727 41.956 25.7915 41.8643 26.5158C41.7726 27.2396 41.3075 27.8616 40.6407 28.1518C39.9743 28.4421 39.2048 28.3573 38.6159 27.9297C37.2552 26.9083 35.6116 26.3614 33.9129 26.3614C32.2151 26.3614 30.5586 26.9092 29.1979 27.9297C28.7627 28.273 28.2078 28.426 27.6588 28.3532C27.1103 28.2804 26.6137 27.9883 26.2825 27.5427C25.9509 27.0972 25.8124 26.536 25.8982 25.9869C25.984 25.4372 26.2866 24.9461 26.7379 24.6235C28.8081 23.0713 31.3296 22.2331 33.9129 22.2331ZM33.9129 28.2038C35.796 28.2038 37.5653 29.1041 38.7041 30.6107C39.0701 31.0438 39.2429 31.6086 39.1806 32.1735C39.1187 32.7379 38.8279 33.2521 38.3766 33.5945C37.9249 33.9368 37.3535 34.0768 36.7958 33.9824C36.2381 33.8875 35.7442 33.5659 35.43 33.0936C35.0659 32.6122 34.5151 32.3316 33.9134 32.3316C33.3117 32.3316 32.7444 32.6126 32.3802 33.0936C32.0596 33.5548 31.5666 33.8649 31.0135 33.9524C30.4609 34.04 29.8963 33.8972 29.4506 33.5576C29.0049 33.2176 28.7159 32.7103 28.6508 32.1519C28.5857 31.5935 28.7499 31.0323 29.1057 30.5982C30.2445 29.093 32.0308 28.2038 33.9129 28.2038Z" fill="#C6C6C6"/>
</svg>
