<svg width="55" height="55" viewBox="0 0 55 55" fill="none" xmlns="http://www.w3.org/2000/svg">
<path d="M51.3876 34.0532C51.5218 34.4178 51.5382 34.8262 51.4134 35.218C50.2395 38.9032 48.2829 42.2902 45.6777 45.1473L45.6776 45.1474C45.578 45.2565 45.4676 45.3508 45.3491 45.4299L45.5708 45.558H45.1237C44.6029 45.8055 43.9785 45.7935 43.455 45.4908L43.0045 45.2304L38.7058 42.7472C37.0341 44.1094 35.1558 45.1955 33.1415 45.9647V51.4516V51.4519H32.6415C32.6419 52.0603 32.2185 52.5868 31.6245 52.7165L51.3876 34.0532ZM51.3876 34.0532H52.2183L50.6033 33.1205L50.6027 33.1202L45.8502 30.3757M51.3876 34.0532L45.8502 30.3757M8.70718 8.92558L13.2943 11.5747C14.966 10.2128 16.8443 9.12641 18.8586 8.3571L18.8586 2.87174L18.8586 2.87112M8.70718 8.92558L19.3586 2.87112H18.8586M8.70718 8.92558L8.54535 8.83191C8.02157 8.52872 7.3969 8.51668 6.87595 8.76464M8.70718 8.92558L6.87595 8.76464M18.8586 2.87112C18.8578 2.02759 19.4452 1.29762 20.2686 1.11726L20.2692 1.11714C24.0455 0.294293 27.9546 0.294286 31.7308 1.11712M18.8586 2.87112L31.7308 1.11712M31.7308 1.11712L31.6244 1.60568L31.7309 1.11714C31.7308 1.11713 31.7308 1.11713 31.7308 1.11712ZM6.87595 8.76464H6.42892L6.65066 8.8927C6.53228 8.97187 6.42189 9.06623 6.32244 9.17531L6.87595 8.76464ZM45.8502 30.3757C46.1916 28.2459 46.1916 26.0754 45.8502 23.9455L50.6027 21.2011C51.3323 20.7798 51.6706 19.9075 51.4159 19.1043L51.4157 19.1036C50.241 15.4187 48.2829 12.0313 45.6761 9.17519C45.1077 8.5523 44.183 8.40955 43.4533 8.8319L38.7058 11.5746C37.0344 10.2127 35.1565 9.12648 33.1426 8.35713V2.87104V2.87073H32.6426L45.8502 30.3757ZM26.2058 37.8355H26.0004C23.1697 37.8355 20.4548 36.7105 18.4533 34.7078L18.4532 34.7077C16.4513 32.7054 15.327 29.989 15.3273 27.1571C15.3277 24.3249 16.4528 21.6091 18.4546 19.6067C18.4546 19.6067 18.4546 19.6067 18.4546 19.6067M26.2058 37.8355L18.4546 19.6067M26.2058 37.8355C28.9604 37.7797 31.5906 36.6604 33.5428 34.7077L26.2058 37.8355ZM18.4546 19.6067C20.4569 17.6047 23.1722 16.4804 26.0027 16.4811H26.0028C28.8337 16.4815 31.5483 17.6073 33.5491 19.6103C35.5503 21.6137 36.6743 24.3302 36.6732 27.162M18.4546 19.6067L36.6732 27.162M36.6732 27.162C36.6695 29.9925 35.5437 32.7061 33.5429 34.7077L36.6732 27.162ZM18.859 45.9647V51.4516L6.3224 9.17536C3.71714 12.0324 1.76056 15.4194 0.58671 19.1037L0.586479 19.1044C0.331772 19.9081 0.670751 20.7799 1.4004 21.2011C1.40046 21.2011 1.40051 21.2011 1.40056 21.2012L6.152 23.9454C5.80977 26.0753 5.80976 28.2459 6.15199 30.3757L1.39762 33.1201C1.3976 33.1201 1.39758 33.1201 1.39756 33.1201C0.667494 33.5414 0.329151 34.4143 0.584377 35.2176L0.584529 35.2181C1.75955 38.9033 3.71731 42.2904 6.32404 45.1474L6.3242 45.1476C6.89256 45.7699 7.81698 45.9126 8.54652 45.4909C8.54655 45.4909 8.54658 45.4908 8.54661 45.4908L13.2944 42.7476C14.9662 44.1095 16.8448 45.1955 18.859 45.9647Z" fill="#C6C6C6" stroke="#C6C6C6"/>
</svg>
