<svg width="50" height="48" viewBox="0 0 50 48" fill="none" xmlns="http://www.w3.org/2000/svg">
<path d="M40.2771 0H9.72238C7.14476 0.00325435 4.67357 1.02836 2.85107 2.85029C1.02857 4.6723 0.00321428 7.14269 0 9.71973V29.1585C0.00325524 31.7354 1.02864 34.2059 2.85107 36.0279C4.67357 37.8499 7.14464 38.875 9.72238 38.8782H17.4046L23.9342 46.7105H23.9337C24.1978 47.0266 24.588 47.2093 25 47.2093C25.4115 47.2093 25.8022 47.0266 26.0658 46.7105L32.5954 38.8782H40.2776C42.8552 38.8749 45.3264 37.8503 47.1489 36.0279C48.9718 34.2059 49.9968 31.7355 50 29.1585V9.71973C49.9967 7.14281 48.9714 4.6723 47.1489 2.85029C45.3264 1.02829 42.8554 0.00321341 40.2776 0H40.2771ZM24.9998 31.9353V31.9358C24.2631 31.9358 23.5563 31.6429 23.0355 31.1222C22.5146 30.6015 22.2221 29.8953 22.2221 29.1585C22.2221 28.4221 22.5146 27.7159 23.0355 27.1952C23.5563 26.674 24.2631 26.3816 24.9998 26.3816C25.7364 26.3816 26.4432 26.674 26.964 27.1952C27.4849 27.7159 27.7774 28.4221 27.7774 29.1585C27.7769 29.8949 27.4844 30.6011 26.9636 31.1217C26.4427 31.6424 25.7363 31.9353 24.9998 31.9358L24.9998 31.9353ZM27.7774 19.4387V19.4392C27.7774 20.4313 27.2482 21.3481 26.3888 21.8441C25.5294 22.3402 24.4701 22.3402 23.6107 21.8441C22.7513 21.3481 22.2221 20.4313 22.2221 19.4392V11.1081C22.2221 10.116 22.7513 9.19926 23.6107 8.70321C24.4701 8.20715 25.5294 8.20715 26.3888 8.70321C27.2482 9.19926 27.7774 10.116 27.7774 11.1081V19.4387Z" fill="#CBC4C4"/>
</svg>
