<svg xmlns="http://www.w3.org/2000/svg" width="50" height="80" viewBox="0 0 50 80" fill="none">
<path d="M33.9867 1.30478V5.85889H16.0117L16.0108 1.30478C16.0089 0.958484 16.2149 0.625693 16.5834 0.380704C16.9528 0.135103 17.4534 -0.00182071 17.9742 1.83481e-05H32.0233C32.5442 -0.0018237 33.0448 0.1351 33.4142 0.380704C33.7827 0.625693 33.9886 0.958484 33.9868 1.30478H33.9867ZM2.48724 10.2096C1.10467 10.2231 -0.00353795 10.9734 8.48807e-06 11.892V17.1135H50V11.892C50.0037 10.9734 48.8954 10.2231 47.5128 10.2096C35.6157 10.209 14.2898 10.2108 2.48724 10.2096V10.2096ZM8.48807e-06 21.4644V68.8886H50V21.4644H8.48807e-06ZM25.4374 58.013H25.4365C24.5037 59.0273 22.5199 59.3589 20.9758 58.759C19.4316 58.1585 18.8932 56.847 19.765 55.8082L27.3565 47.2803H16.6238V47.2809C15.4592 47.268 14.3916 46.8468 13.8171 46.1726C13.2436 45.499 13.2492 44.6732 13.8319 44.0027L24.3031 32.1973H24.3022C25.2368 31.1916 27.2086 30.8674 28.7407 31.4672C30.2719 32.0671 30.8011 33.3712 29.9302 34.4022L22.3829 42.9295H33.0721C34.2422 42.935 35.32 43.3531 35.9038 44.0273C36.4875 44.7021 36.4894 45.5316 35.9075 46.207L25.4374 58.013ZM8.48807e-06 78.3464C0.0147853 79.2551 1.11935 79.9901 2.48724 80H47.5128C48.8805 79.9902 49.9851 79.2552 50 78.3464V73.2415L8.48807e-06 73.2409V78.3464Z" fill="#141413"/>
</svg>