<svg width="50" height="108" viewBox="0 0 50 108" fill="none" xmlns="http://www.w3.org/2000/svg">
<path d="M23.9327 73.1914L23.9293 73.1893C22.9499 72.6028 22.6307 71.3329 23.2198 70.3482C23.22 70.3479 23.2202 70.3476 23.2204 70.3473L30.6895 57.905L32.0534 55.633H29.4035H14.2848C13.5386 55.633 12.8487 55.2302 12.4833 54.5843L12.4818 54.5816C12.1149 53.9361 12.1243 53.1403 12.5092 52.5009L12.5102 52.4991L23.2227 34.6449L23.2234 34.6439C23.81 33.6643 25.0805 33.3451 26.0653 33.935C27.0448 34.5216 27.364 35.7916 26.7746 36.7764C26.7745 36.7766 26.7744 36.7768 26.7743 36.777L19.3051 49.2193L17.9412 51.4913H20.5912H35.7098C36.4561 51.4913 37.1459 51.8941 37.5113 52.54L37.5129 52.5427C37.8798 53.1882 37.8703 53.984 37.4855 54.6234L37.4844 54.6252L26.7719 72.4794L26.7704 72.4819C26.3849 73.1273 25.7035 73.4871 24.9942 73.4871C24.6329 73.4871 24.2667 73.3926 23.9327 73.1914Z" fill="#0D0106" stroke="#0D0106" stroke-width="3"/>
<mask id="path-2-inside-1_213_12" fill="white">
<path fill-rule="evenodd" clip-rule="evenodd" d="M12.1947 17.8536L16.8062 22.4664C18.1986 23.8629 18.1986 26.1234 16.8062 27.5191C16.1064 28.2157 15.1921 28.5656 14.2819 28.5656C13.3677 28.5656 12.4535 28.2157 11.7536 27.5191L1.04434 16.8066C-0.348115 15.4101 -0.348115 13.1496 1.04434 11.754C1.09526 11.7032 1.14732 11.6543 1.20045 11.6072L11.7586 1.04585C13.1551 -0.350614 15.4155 -0.346615 16.8112 1.04585C18.2077 2.4423 18.2077 4.70278 16.8112 6.09846L12.1992 10.7119H46.4235C48.3946 10.7119 49.9943 12.3116 49.9943 14.2827V39.2785C49.9943 41.2497 48.3946 42.8494 46.4235 42.8494C44.4523 42.8494 42.8526 41.2497 42.8526 39.2785V17.8536H12.1947Z"/>
</mask>
<path fill-rule="evenodd" clip-rule="evenodd" d="M12.1947 17.8536L16.8062 22.4664C18.1986 23.8629 18.1986 26.1234 16.8062 27.5191C16.1064 28.2157 15.1921 28.5656 14.2819 28.5656C13.3677 28.5656 12.4535 28.2157 11.7536 27.5191L1.04434 16.8066C-0.348115 15.4101 -0.348115 13.1496 1.04434 11.754C1.09526 11.7032 1.14732 11.6543 1.20045 11.6072L11.7586 1.04585C13.1551 -0.350614 15.4155 -0.346615 16.8112 1.04585C18.2077 2.4423 18.2077 4.70278 16.8112 6.09846L12.1992 10.7119H46.4235C48.3946 10.7119 49.9943 12.3116 49.9943 14.2827V39.2785C49.9943 41.2497 48.3946 42.8494 46.4235 42.8494C44.4523 42.8494 42.8526 41.2497 42.8526 39.2785V17.8536H12.1947Z" fill="#0D0106"/>
<path d="M12.1947 17.8536V14.8536H4.95362L10.0731 19.9746L12.1947 17.8536ZM16.8062 22.4664L18.9305 20.3482L18.9278 20.3455L16.8062 22.4664ZM16.8062 27.5191L18.9227 29.6452L18.93 29.6379L16.8062 27.5191ZM11.7536 27.5191L9.63191 29.6401L9.63721 29.6453L11.7536 27.5191ZM1.04434 16.8066L-1.08002 18.9249L-1.0773 18.9276L1.04434 16.8066ZM1.04434 11.754L-1.07393 9.62959L-1.07943 9.6351L1.04434 11.754ZM1.20045 11.6072L3.18979 13.8528L3.25783 13.7925L3.32209 13.7282L1.20045 11.6072ZM11.7586 1.04585L9.63728 -1.07548L9.63696 -1.07515L11.7586 1.04585ZM16.8112 1.04585L18.9325 -1.07548L18.9301 -1.07793L16.8112 1.04585ZM16.8112 6.09846L14.6905 3.97655L14.6896 3.97747L16.8112 6.09846ZM12.1992 10.7119L10.0775 8.5909L4.95811 13.7119H12.1992V10.7119ZM42.8526 17.8536H45.8526V14.8536H42.8526V17.8536ZM10.0731 19.9746L14.6845 24.5874L18.9278 20.3455L14.3163 15.7326L10.0731 19.9746ZM14.6818 24.5847C14.9071 24.8106 14.9062 25.1759 14.6824 25.4002L18.93 29.6379C21.491 27.0709 21.4902 22.9152 18.9305 20.3482L14.6818 24.5847ZM14.6897 25.3929C14.5697 25.5124 14.4241 25.5656 14.2819 25.5656V31.5656C15.9602 31.5656 17.643 30.9191 18.9227 29.6452L14.6897 25.3929ZM14.2819 25.5656C14.134 25.5656 13.9888 25.5112 13.8699 25.3928L9.63721 29.6453C10.9181 30.9203 12.6014 31.5656 14.2819 31.5656V25.5656ZM13.8752 25.3981L3.16599 14.6856L-1.0773 18.9276L9.63192 29.6401L13.8752 25.3981ZM3.16871 14.6883C2.94344 14.4624 2.94429 14.0972 3.16812 13.8728L-1.07943 9.6351C-3.64052 12.2021 -3.63967 16.3579 -1.08002 18.9249L3.16871 14.6883ZM3.16262 13.8783C3.17174 13.8692 3.18081 13.8607 3.18979 13.8528L-0.788897 9.36166C-0.886166 9.44783 -0.981223 9.53716 -1.07393 9.6296L3.16262 13.8783ZM3.32209 13.7282L13.8802 3.16684L9.63696 -1.07515L-0.921195 9.48622L3.32209 13.7282ZM13.8799 3.16717C14.1013 2.94582 14.4641 2.94192 14.6924 3.16962L18.9301 -1.07793C16.3669 -3.63515 12.2088 -3.64704 9.63728 -1.07548L13.8799 3.16717ZM14.6899 3.16717C14.9151 3.39238 14.9143 3.7529 14.6905 3.97655L18.9319 8.22037C21.5011 5.65266 21.5002 1.49223 18.9325 -1.07548L14.6899 3.16717ZM14.6896 3.97747L10.0775 8.5909L14.3208 12.8329L18.9329 8.21946L14.6896 3.97747ZM12.1992 13.7119H46.4235V7.7119H12.1992V13.7119ZM46.4235 13.7119C46.7377 13.7119 46.9943 13.9684 46.9943 14.2827H52.9943C52.9943 10.6547 50.0514 7.7119 46.4235 7.7119V13.7119ZM46.9943 14.2827V39.2785H52.9943V14.2827H46.9943ZM46.9943 39.2785C46.9943 39.5928 46.7377 39.8494 46.4235 39.8494V45.8494C50.0514 45.8494 52.9943 42.9065 52.9943 39.2785H46.9943ZM46.4235 39.8494C46.1092 39.8494 45.8526 39.5928 45.8526 39.2785H39.8526C39.8526 42.9065 42.7955 45.8494 46.4235 45.8494V39.8494ZM45.8526 39.2785V17.8536H39.8526V39.2785H45.8526ZM42.8526 14.8536H12.1947V20.8536H42.8526V14.8536Z" fill="#0D0106" mask="url(#path-2-inside-1_213_12)"/>
<mask id="path-4-inside-2_213_12" fill="white">
<path fill-rule="evenodd" clip-rule="evenodd" d="M3.57327 96.4128H37.8056L33.1908 101.029C31.7943 102.426 31.7943 104.682 33.1908 106.078C33.8866 106.775 34.8008 107.125 35.715 107.125C36.6293 107.125 37.5476 106.775 38.2434 106.078L48.9526 95.3659C50.3491 93.9694 50.3491 91.713 48.9526 90.3166C48.9127 90.2766 48.8721 90.2379 48.8308 90.2002L38.2385 79.6047C36.8428 78.2082 34.5784 78.2082 33.1859 79.6047C31.7934 81.0012 31.7934 83.2576 33.1859 84.6541L37.8016 89.2712H7.1441V67.8462C7.1441 65.8719 5.54441 64.2754 3.57327 64.2754C1.60213 64.2754 0.00244141 65.8719 0.00244141 67.8462V92.842C0.00244141 94.8163 1.60213 96.4128 3.57327 96.4128Z"/>
</mask>
<path fill-rule="evenodd" clip-rule="evenodd" d="M3.57327 96.4128H37.8056L33.1908 101.029C31.7943 102.426 31.7943 104.682 33.1908 106.078C33.8866 106.775 34.8008 107.125 35.715 107.125C36.6293 107.125 37.5476 106.775 38.2434 106.078L48.9526 95.3659C50.3491 93.9694 50.3491 91.713 48.9526 90.3166C48.9127 90.2766 48.8721 90.2379 48.8308 90.2002L38.2385 79.6047C36.8428 78.2082 34.5784 78.2082 33.1859 79.6047C31.7934 81.0012 31.7934 83.2576 33.1859 84.6541L37.8016 89.2712H7.1441V67.8462C7.1441 65.8719 5.54441 64.2754 3.57327 64.2754C1.60213 64.2754 0.00244141 65.8719 0.00244141 67.8462V92.842C0.00244141 94.8163 1.60213 96.4128 3.57327 96.4128Z" fill="#0D0106"/>
<path d="M37.8056 96.4128L39.9272 98.5338L45.0467 93.4128H37.8056V96.4128ZM33.1908 101.029L35.3121 103.15L35.3124 103.15L33.1908 101.029ZM33.1908 106.078L35.3133 103.958L35.3121 103.957L33.1908 106.078ZM38.2434 106.078L36.1217 103.957L36.1209 103.958L38.2434 106.078ZM48.9526 95.3659L46.8313 93.2446L46.831 93.2449L48.9526 95.3659ZM48.9526 90.3166L46.8307 92.4373L46.8313 92.4379L48.9526 90.3166ZM48.8308 90.2002L46.7092 92.3212L46.7582 92.3702L46.8094 92.4169L48.8308 90.2002ZM38.2385 79.6047L36.1166 81.7254L36.1169 81.7257L38.2385 79.6047ZM33.1859 84.6541L31.0615 86.7723L31.0643 86.775L33.1859 84.6541ZM37.8016 89.2712V92.2712H45.0427L39.9233 87.1502L37.8016 89.2712ZM7.1441 89.2712H4.1441V92.2712H7.1441V89.2712ZM37.8056 93.4128H3.57327V99.4128H37.8056V93.4128ZM35.3124 103.15L39.9272 98.5338L35.6839 94.2918L31.0691 98.9081L35.3124 103.15ZM35.3121 103.957C35.0872 103.732 35.0872 103.375 35.3121 103.15L31.0694 98.9078C28.5014 101.476 28.5014 105.632 31.0695 108.2L35.3121 103.957ZM35.715 104.125C35.5655 104.125 35.4245 104.07 35.3133 103.958L31.0682 108.198C32.3486 109.48 34.0361 110.125 35.715 110.125V104.125ZM36.1209 103.958C36.0121 104.067 35.8682 104.125 35.715 104.125V110.125C37.3905 110.125 39.083 109.483 40.3659 108.199L36.1209 103.958ZM46.831 93.2449L36.1217 103.957L40.365 108.199L51.0743 97.4869L46.831 93.2449ZM46.8313 92.4379C47.0562 92.6628 47.0562 93.0197 46.8313 93.2446L51.074 97.4872C53.6419 94.9192 53.642 90.7633 51.0739 88.1953L46.8313 92.4379ZM46.8094 92.4169C46.8164 92.4233 46.8235 92.4301 46.8307 92.4373L51.0745 88.1958C51.0019 88.1232 50.9278 88.0524 50.8523 87.9835L46.8094 92.4169ZM36.1169 81.7257L46.7092 92.3212L50.9525 88.0792L40.3602 77.4837L36.1169 81.7257ZM35.3103 81.7229C35.5291 81.5035 35.8912 81.4999 36.1166 81.7254L40.3604 77.484C37.7944 74.9165 33.6276 74.9129 31.0615 77.4864L35.3103 81.7229ZM35.3103 82.5358C35.0853 82.3102 35.0853 81.9486 35.3103 81.7229L31.0615 77.4864C28.5016 80.0538 28.5015 84.205 31.0615 86.7723L35.3103 82.5358ZM39.9233 87.1502L35.3075 82.5331L31.0643 86.775L35.68 91.3922L39.9233 87.1502ZM7.1441 92.2712H37.8016V86.2712H7.1441V92.2712ZM4.1441 67.8462V89.2712H10.1441V67.8462H4.1441ZM3.57327 67.2754C3.8893 67.2754 4.1441 67.5305 4.1441 67.8462H10.1441C10.1441 64.2133 7.19952 61.2754 3.57327 61.2754V67.2754ZM3.00244 67.8462C3.00244 67.5305 3.25724 67.2754 3.57327 67.2754V61.2754C-0.0529804 61.2754 -2.99756 64.2133 -2.99756 67.8462H3.00244ZM3.00244 92.842V67.8462H-2.99756V92.842H3.00244ZM3.57327 93.4128C3.25724 93.4128 3.00244 93.1577 3.00244 92.842H-2.99756C-2.99756 96.4749 -0.0529793 99.4128 3.57327 99.4128V93.4128Z" fill="#0D0106" mask="url(#path-4-inside-2_213_12)"/>
</svg>
