<svg xmlns="http://www.w3.org/2000/svg" width="50" height="85" viewBox="0 0 50 85" fill="none">
<path d="M25.0004 55.791C21.5476 55.791 18.7478 58.5908 18.7478 62.0436V78.2492C18.7478 81.7014 21.5476 84.5 25.0004 84.5C28.4526 84.5 31.2524 81.7008 31.2524 78.2492V62.0436C31.2524 58.5896 28.4526 55.791 25.0004 55.791Z" fill="#1a1918"/>
<path d="M37.6646 12.1992H32.8585C33.2292 11.3822 33.4815 10.4999 33.5817 9.57097H47.7607C48.7167 9.57097 49.4913 8.46523 49.4913 7.10075C49.4913 5.73683 48.7168 4.63052 47.7607 4.63052H32.646C31.2026 1.87919 28.3233 0 25.0007 0C21.6781 0 18.7984 1.87904 17.3548 4.62992H2.23862C1.28318 4.62992 0.508062 5.73566 0.508062 7.10014C0.508062 8.46464 1.28314 9.57037 2.23862 9.57037H16.4182C16.5184 10.4993 16.7707 11.3817 17.142 12.1986H12.3359C5.52289 12.1992 0 17.7219 0 24.5345L4.11176 60.8824C4.11176 67.6948 9.63404 69.9281 16.447 69.9281H17.1867V62.1161C17.1867 57.8009 20.6844 54.3035 24.9994 54.3035C29.314 54.3035 32.812 57.8011 32.812 62.1161V69.9281H33.5518C40.3647 69.9281 45.8876 67.6948 45.8876 60.8824L50 24.5345C50 17.7221 44.4767 12.1992 37.6641 12.1992H37.6646ZM25.0004 15.5153C22.5073 15.5153 20.3293 14.1844 19.1228 12.1987C18.6442 11.4113 18.32 10.5231 18.1903 9.57052C18.1491 9.26403 18.1196 8.95341 18.1196 8.63512C18.1196 7.13977 18.6023 5.7593 19.4128 4.63064C20.6612 2.89133 22.6959 1.75437 25.0004 1.75437C27.3049 1.75437 29.3391 2.89136 30.588 4.63019C31.3991 5.75892 31.8812 7.13934 31.8812 8.63467C31.8812 8.95295 31.8517 9.26358 31.8105 9.57007C31.6802 10.5231 31.3566 11.4114 30.8786 12.1983C29.6709 14.1852 27.4935 15.5154 25.0004 15.5154L25.0004 15.5153ZM41.6451 27.6595H32.2398C31.6946 27.6595 31.2526 27.2175 31.2526 26.6723C31.2526 26.1271 31.6952 25.685 32.2398 25.685H41.6451C42.1903 25.685 42.6324 26.1271 42.6324 26.6723C42.6324 27.2175 42.1903 27.6595 41.6451 27.6595Z" fill="#1a1918"/>
</svg>