<svg xmlns="http://www.w3.org/2000/svg" xmlns:xlink="http://www.w3.org/1999/xlink" width="500" zoomAndPan="magnify" viewBox="0 0 375 374.999991" height="500" preserveAspectRatio="xMidYMid meet" version="1.0"><defs><clipPath id="1d2d4f8f1a"><path d="M 25 13.316406 L 349 13.316406 L 349 361.316406 L 25 361.316406 Z M 25 13.316406 " clip-rule="nonzero"/></clipPath></defs><path fill="#1ab35a" d="M 288.4375 178.707031 C 288.4375 173.242188 283.339844 168.796875 277.054688 168.796875 C 275.296875 168.796875 273.683594 169.164062 272.183594 169.785156 L 254.738281 135.265625 C 250.488281 124.050781 239.753906 116.601562 227.746094 116.601562 L 147.828125 116.601562 C 135.820312 116.601562 125.085938 124.050781 120.835938 135.265625 L 102.34375 170.125 C 100.703125 169.332031 98.859375 168.851562 96.878906 168.851562 C 90.589844 168.851562 85.492188 173.296875 85.492188 178.765625 C 85.492188 183.011719 88.550781 186.582031 92.828125 188.023438 C 89.175781 193.40625 86.996094 199.917969 86.996094 206.914062 L 86.996094 221.414062 C 86.996094 227.21875 88.75 232.601562 91.695312 237.105469 L 91.695312 263.953125 C 91.695312 270.945312 97.386719 276.640625 104.382812 276.640625 L 118.203125 276.640625 C 125.199219 276.640625 130.890625 270.945312 130.890625 263.953125 L 130.890625 250.074219 L 242.644531 250.074219 L 242.644531 263.527344 C 242.644531 270.523438 248.335938 276.214844 255.332031 276.214844 L 269.152344 276.214844 C 276.148438 276.214844 281.839844 270.523438 281.839844 263.527344 L 281.839844 238.152344 C 285.238281 233.449219 287.277344 227.671875 287.277344 221.414062 L 287.277344 206.914062 C 287.277344 199.863281 285.066406 193.320312 281.359375 187.882812 C 285.519531 186.410156 288.4375 182.871094 288.4375 178.707031 " fill-opacity="1" fill-rule="nonzero"/><path fill="#42c854" d="M 287.277344 206.914062 C 287.277344 199.863281 285.066406 193.320312 281.359375 187.882812 C 285.519531 186.410156 288.4375 182.871094 288.4375 178.707031 C 288.4375 173.242188 283.339844 168.796875 277.054688 168.796875 C 275.296875 168.796875 273.683594 169.164062 272.183594 169.785156 L 254.738281 135.265625 C 250.488281 124.050781 239.753906 116.601562 227.746094 116.601562 L 147.828125 116.601562 C 144.710938 116.601562 141.710938 117.109375 138.847656 118.046875 L 129.703125 145.460938 C 114.691406 190.488281 148.195312 236.992188 195.632812 236.992188 L 282.632812 236.992188 C 285.578125 232.488281 287.277344 227.191406 287.277344 221.414062 L 287.277344 206.914062 " fill-opacity="1" fill-rule="nonzero"/><path fill="#1ab35a" d="M 184.132812 70.976562 L 210.246094 70.976562 L 210.246094 18.753906 L 184.132812 18.753906 C 169.71875 18.753906 158.023438 30.449219 158.023438 44.867188 C 158.023438 59.28125 169.71875 70.976562 184.132812 70.976562 " fill-opacity="1" fill-rule="nonzero"/><path fill="#42c854" d="M 184.132812 18.753906 C 181.1875 18.753906 178.382812 19.347656 175.75 20.253906 C 170 25.042969 166.292969 32.148438 166.292969 40.222656 C 166.292969 54.636719 177.960938 66.304688 192.375 66.304688 L 210.246094 66.304688 L 210.246094 18.753906 L 184.132812 18.753906 " fill-opacity="1" fill-rule="nonzero"/><g clip-path="url(#1d2d4f8f1a)"><path fill="#000000" d="M 184.132812 24.191406 L 204.808594 24.191406 L 204.808594 65.539062 L 184.132812 65.539062 C 172.75 65.539062 163.460938 56.25 163.460938 44.867188 C 163.460938 33.453125 172.75 24.191406 184.132812 24.191406 Z M 268.671875 59.480469 C 266.09375 57.976562 262.75 58.828125 261.222656 61.433594 C 259.722656 64.011719 260.570312 67.351562 263.175781 68.851562 C 309.367188 95.898438 338.054688 145.882812 338.054688 199.351562 C 338.054688 282.671875 270.285156 350.441406 186.964844 350.441406 C 103.648438 350.441406 35.875 282.671875 35.875 199.351562 C 35.875 128.695312 85.097656 67.578125 153.519531 52.117188 C 156.804688 66.019531 169.238281 76.414062 184.132812 76.414062 L 210.246094 76.414062 C 213.246094 76.414062 215.683594 73.949219 215.683594 70.976562 L 215.683594 62.054688 L 234.683594 62.054688 C 237.6875 62.054688 240.121094 59.621094 240.121094 56.617188 C 240.121094 53.617188 237.6875 51.179688 234.683594 51.179688 L 215.683594 51.179688 L 215.683594 38.523438 L 234.683594 38.523438 C 237.6875 38.523438 240.121094 36.085938 240.121094 33.085938 C 240.121094 30.082031 237.6875 27.648438 234.683594 27.648438 L 215.683594 27.648438 L 215.683594 18.753906 C 215.683594 15.753906 213.246094 13.316406 210.246094 13.316406 L 184.132812 13.316406 C 168.046875 13.316406 154.878906 25.464844 152.980469 41.070312 C 78.667969 56.957031 25 122.972656 25 199.351562 C 25 288.648438 97.644531 361.316406 186.964844 361.316406 C 276.289062 361.316406 348.929688 288.648438 348.929688 199.351562 C 348.929688 142.0625 318.175781 88.449219 268.671875 59.480469 " fill-opacity="1" fill-rule="nonzero"/></g><path fill="#000000" d="M 279.515625 182.757812 C 277.929688 183.351562 276.714844 184.625 276.203125 186.210938 C 275.664062 187.828125 275.921875 189.554688 276.882812 190.96875 C 280.113281 195.699219 281.839844 201.222656 281.839844 206.914062 L 281.839844 221.414062 C 281.839844 226.3125 280.308594 230.988281 277.421875 234.980469 C 276.769531 235.886719 276.402344 236.992188 276.402344 238.152344 L 276.402344 263.527344 C 276.402344 267.519531 273.144531 270.777344 269.152344 270.777344 L 255.332031 270.777344 C 251.339844 270.777344 248.082031 267.519531 248.082031 263.527344 L 248.082031 250.074219 C 248.082031 247.074219 245.644531 244.636719 242.644531 244.636719 L 130.890625 244.636719 C 127.890625 244.636719 125.453125 247.074219 125.453125 250.074219 L 125.453125 263.953125 C 125.453125 267.945312 122.195312 271.203125 118.203125 271.203125 L 104.382812 271.203125 C 100.390625 271.203125 97.132812 267.945312 97.132812 263.953125 L 97.132812 237.105469 C 97.132812 236.054688 96.820312 235.007812 96.253906 234.128906 C 93.761719 230.335938 92.433594 225.945312 92.433594 221.414062 L 92.433594 206.914062 C 92.433594 201.25 94.132812 195.785156 97.332031 191.082031 C 98.265625 189.667969 98.519531 187.882812 97.953125 186.269531 C 97.417969 184.683594 96.140625 183.410156 94.554688 182.871094 C 92.375 182.132812 90.929688 180.492188 90.929688 178.765625 C 90.929688 176.328125 93.648438 174.289062 96.878906 174.289062 C 97.925781 174.289062 98.972656 174.542969 99.964844 175.027344 C 102.597656 176.300781 105.769531 175.253906 107.128906 172.675781 L 125.933594 137.191406 C 129.332031 128.128906 138.140625 122.039062 147.828125 122.039062 L 227.746094 122.039062 C 237.433594 122.039062 246.210938 128.128906 249.867188 137.699219 L 267.339844 172.222656 C 268.613281 174.769531 271.644531 175.875 274.277344 174.800781 C 278.382812 173.101562 283 175.59375 283 178.707031 C 283 180.40625 281.640625 182.019531 279.515625 182.757812 Z M 275.070312 163.472656 L 259.804688 133.339844 C 254.792969 120.085938 241.90625 111.164062 227.746094 111.164062 L 147.828125 111.164062 C 133.636719 111.164062 120.753906 120.085938 116.050781 132.714844 L 99.625 163.613281 C 98.71875 163.5 97.8125 163.414062 96.878906 163.414062 C 87.617188 163.414062 80.054688 170.296875 80.054688 178.765625 C 80.054688 183.097656 82.09375 187.148438 85.4375 189.980469 C 82.886719 195.246094 81.558594 201.023438 81.558594 206.914062 L 81.558594 221.414062 C 81.558594 227.503906 83.199219 233.421875 86.257812 238.660156 L 86.257812 263.953125 C 86.257812 273.949219 94.386719 282.078125 104.382812 282.078125 L 118.203125 282.078125 C 128.199219 282.078125 136.328125 273.949219 136.328125 263.953125 L 136.328125 255.511719 L 237.207031 255.511719 L 237.207031 263.527344 C 237.207031 273.523438 245.335938 281.652344 255.332031 281.652344 L 269.152344 281.652344 C 279.148438 281.652344 287.277344 273.523438 287.277344 263.527344 L 287.277344 239.824219 C 290.816406 234.328125 292.714844 227.984375 292.714844 221.414062 L 292.714844 206.914062 C 292.714844 200.9375 291.355469 195.105469 288.75 189.78125 C 291.976562 186.949219 293.875 183.011719 293.875 178.707031 C 293.875 169.644531 284.984375 162.308594 275.070312 163.472656 " fill-opacity="1" fill-rule="nonzero"/></svg>